<svg xmlns="http://www.w3.org/2000/svg" viewBox="0 0 445.9 446.89"><title>Asset 18</title><g id="Layer_2" data-name="Layer 2"><g id="Слой_1" data-name="Слой 1"><path d="M99.2,67.79c50.3-74.2,133.2-72.9,168.3-62.9,70.8,23.6,131.3,74.5,142.3,135.8s36.1,87.9,36.1,144.6S407.4,417,338.2,415.39s-45.6,31.5-141.6,31.5S0,352.49,0,266,36.3,160.59,99.2,67.79Z" fill="#f4dcdc"/><path d="M261.3,122c-1.6-.6-3.1-1.1-4.7-1.7a4,4,0,1,1,2.6-7.6c1.6.6,3.2,1.1,4.8,1.7s3.3,1.2,5,1.9a4,4,0,0,1-2.9,7.5Q263.85,122.89,261.3,122Z" fill="#7aabd3" fill-rule="evenodd"/><path d="M246.4,112.79a4,4,0,0,1-4.9,2.8c-3.2-.9-6.4-1.8-9.6-2.6a3.93,3.93,0,0,1-2.9-4.8,3.86,3.86,0,0,1,4.8-2.9c3.3.8,6.6,1.7,9.9,2.6A4,4,0,0,1,246.4,112.79Z" fill="#7aabd3" fill-rule="evenodd"/><path d="M279.5,125a4,4,0,0,1,5.3-2c3.3,1.5,6.5,3,9.6,4.6a4,4,0,0,1-3.6,7.2c-3.1-1.5-6.2-3-9.4-4.5A4.08,4.08,0,0,1,279.5,125Z" fill="#7aabd3" fill-rule="evenodd"/><path d="M220.9,106.49a4,4,0,0,1-4.7,3.2c-3.3-.6-6.6-1.1-9.8-1.6a4,4,0,0,1,1.1-7.9c3.3.5,6.7,1,10.1,1.6A4.07,4.07,0,0,1,220.9,106.49Z" fill="#7aabd3" fill-rule="evenodd"/><path d="M304.1,137.19a4.07,4.07,0,0,1,5.5-1.5c3.1,1.8,6.1,3.7,9.1,5.6a4,4,0,0,1-4.3,6.7c-2.9-1.8-5.8-3.6-8.9-5.4A3.84,3.84,0,0,1,304.1,137.19Z" fill="#7aabd3" fill-rule="evenodd"/><path d="M194.9,102.69a4.09,4.09,0,0,1-4.3,3.7c-3.3-.3-6.6-.4-9.9-.6a4,4,0,1,1,.2-8c3.4.1,6.8.3,10.3.6A4,4,0,0,1,194.9,102.69Z" fill="#7aabd3" fill-rule="evenodd"/><path d="M327.2,151.79a4,4,0,0,1,5.6-.8c2.9,2.2,5.7,4.3,8.5,6.6a4,4,0,0,1-5,6.2c-2.6-2.1-5.4-4.3-8.2-6.3A4.14,4.14,0,0,1,327.2,151.79Z" fill="#7aabd3" fill-rule="evenodd"/><path d="M168.7,101.69a4,4,0,0,1-3.8,4.2c-3.3.1-6.6.4-9.9.6a3.94,3.94,0,0,1-4.3-3.6,4.09,4.09,0,0,1,3.6-4.4c3.4-.3,6.8-.5,10.3-.7A4.08,4.08,0,0,1,168.7,101.69Z" fill="#7aabd3" fill-rule="evenodd"/><path d="M348.5,169a4,4,0,0,1,5.7-.1c2.6,2.5,5.2,5,7.6,7.6a4,4,0,1,1-5.9,5.5c-2.3-2.5-4.7-4.9-7.3-7.3A4.08,4.08,0,0,1,348.5,169Z" fill="#7aabd3" fill-rule="evenodd"/><path d="M225.9,360.69c-80.4,0-145.8-65.4-145.8-145.8s65.4-145.8,145.8-145.8,145.8,65.4,145.8,145.8S306.3,360.69,225.9,360.69Zm0-288.6c-78.7,0-142.8,64.1-142.8,142.8s64.1,142.8,142.8,142.8,142.8-64.1,142.8-142.8S304.6,72.09,225.9,72.09Z" fill="#fff"/><circle cx="225.84" cy="214.9" r="142.8" fill="#acd8cf"/><path d="M159.6,88.39a143.15,143.15,0,0,0-65.4,71.2c4.2,8.6,15,27.3,24.1,32.8,11.5,6.9,8,26.4,18.9,31.6s-.7,27,22.3,37.9,33.3-2.9,42.5,9.8,8,28.1,28.7,42.5,33.9,4.6,27-2.9-17.2-20.1-16.6-29.8,21.2-28.1,16.6-52.8-6.3-36.2-40.2-36.2c-5.4-5.7-18.1-16.5-26.4-13.8-10.3,3.4-21.2,42.5-44.8,25.3s3.4-44.3,24.1-44.3S202,155.19,202,142,203.8,109,159.6,88.39Z" fill="#c9b382"/><path d="M368.7,214.89a138.51,138.51,0,0,0-1.8-22.5c-6.3.1-22.1,2.6-34.5,11.5-15.6,11.1-22.5,18.4-15.6,34.4s17.3,16.1,8.7,33.3-8.7,36.8-8.7,53.4A142.49,142.49,0,0,0,368.7,214.89Z" fill="#c9b382"/><path d="M96,119.59a4,4,0,0,1-1.2,5.5c-2.4,1.5-4.6,3.1-6.7,4.7a4,4,0,0,1-4.9-6.3c2.3-1.8,4.8-3.5,7.3-5.2A4.05,4.05,0,0,1,96,119.59Z" fill="#7aabd3" fill-rule="evenodd"/><path d="M392.9,239.19a4,4,0,0,1,4.6,3.3,83.42,83.42,0,0,1,1,12.1,4,4,0,0,1-8,0,67.72,67.72,0,0,0-.9-10.9A3.93,3.93,0,0,1,392.9,239.19Z" fill="#7aabd3" fill-rule="evenodd"/><path d="M78.2,133a4.08,4.08,0,0,1,.3,5.7,77.91,77.91,0,0,0-5.1,6.3,4,4,0,1,1-6.5-4.7c1.8-2.4,3.7-4.8,5.7-7A3.88,3.88,0,0,1,78.2,133Z" fill="#7aabd3" fill-rule="evenodd"/><path d="M393.2,269.09A4,4,0,0,1,396,274c-.5,2-1.2,3.9-1.9,5.9-.6,1.6-1.2,3.2-1.9,4.7a4,4,0,0,1-7.3-3.3c.6-1.4,1.2-2.8,1.7-4.2a44.77,44.77,0,0,0,1.6-5.2A4.17,4.17,0,0,1,393.2,269.09Z" fill="#7aabd3" fill-rule="evenodd"/><path d="M65,150.89a4.17,4.17,0,0,1,2.1,5.3c-.5,1.2-1,2.5-1.5,3.7-.5,1.4-1,2.8-1.4,4.3a4,4,0,0,1-7.8-2.1c.5-1.6,1-3.2,1.6-4.8.5-1.4,1.1-2.8,1.7-4.2A3.93,3.93,0,0,1,65,150.89Z" fill="#7aabd3" fill-rule="evenodd"/><path d="M58,174.19a4,4,0,0,1,3.8,4.2c-.1,3-.1,6,.1,9.1a4,4,0,1,1-8,.6,85.55,85.55,0,0,1-.2-10.1A4.17,4.17,0,0,1,58,174.19Z" fill="#7aabd3" fill-rule="evenodd"/><path d="M383.2,292.89a4,4,0,0,1,.8,5.6,67.81,67.81,0,0,1-6.6,7.6,4,4,0,1,1-5.7-5.7,62.44,62.44,0,0,0,5.9-6.8A4.09,4.09,0,0,1,383.2,292.89Z" fill="#7aabd3" fill-rule="evenodd"/><path d="M59.6,199a4,4,0,0,1,4.9,2.8c.8,2.9,1.7,5.8,2.8,8.7a4,4,0,0,1-7.5,2.9c-1.2-3.2-2.2-6.3-3.1-9.5A4.08,4.08,0,0,1,59.6,199Z" fill="#7aabd3" fill-rule="evenodd"/><path d="M366,310.89a4,4,0,0,1-1,5.6c-2.7,1.9-5.5,3.6-8.5,5.3a4,4,0,0,1-3.9-6.9,78.54,78.54,0,0,0,7.8-4.9A3.89,3.89,0,0,1,366,310.89Z" fill="#7aabd3" fill-rule="evenodd"/><path d="M68.1,222.39a3.94,3.94,0,0,1,5.4,1.6c1.4,2.7,3,5.3,4.7,8a3.92,3.92,0,0,1-1.2,5.5,4,4,0,0,1-5.5-1.2c-1.8-2.8-3.5-5.6-5-8.5A3.9,3.9,0,0,1,68.1,222.39Z" fill="#7aabd3" fill-rule="evenodd"/><path d="M344.5,323.29a4,4,0,0,1-2.3,5.2q-4.5,1.8-9.3,3.3a4,4,0,0,1-5-2.6,3.93,3.93,0,0,1,2.6-5c3-.9,5.9-2,8.8-3.1A3.9,3.9,0,0,1,344.5,323.29Z" fill="#7aabd3" fill-rule="evenodd"/><path d="M81.3,243.49a3.91,3.91,0,0,1,5.6.7q2.85,3.6,6,7.2a4,4,0,0,1-.3,5.6,4.08,4.08,0,0,1-5.7-.3q-3.3-3.75-6.3-7.5A4.2,4.2,0,0,1,81.3,243.49Z" fill="#7aabd3" fill-rule="evenodd"/><path d="M320.7,330.89a4,4,0,0,1-3.1,4.7c-3.2.6-6.4,1.2-9.7,1.7a4,4,0,0,1-1.1-7.9c3.1-.5,6.2-1,9.2-1.6A4,4,0,0,1,320.7,330.89Z" fill="#7aabd3" fill-rule="evenodd"/><path d="M97.7,262.29a4,4,0,0,1,5.7-.1c2.2,2.1,4.6,4.3,7,6.3a4.09,4.09,0,0,1,.4,5.7,4,4,0,0,1-5.6.4q-3.75-3.3-7.2-6.6A3.91,3.91,0,0,1,97.7,262.29Z" fill="#7aabd3" fill-rule="evenodd"/><path d="M296.1,334.69a3.94,3.94,0,0,1-3.7,4.2c-3.2.2-6.5.3-9.8.4a4,4,0,1,1-.2-8c3.2-.1,6.3-.2,9.4-.4A4,4,0,0,1,296.1,334.69Z" fill="#7aabd3" fill-rule="evenodd"/><path d="M116.4,278.79a4,4,0,0,1,5.6-.8c2.5,1.9,5,3.7,7.6,5.5a4,4,0,0,1-4.6,6.6c-2.7-1.9-5.3-3.8-7.9-5.7A4.09,4.09,0,0,1,116.4,278.79Z" fill="#7aabd3" fill-rule="evenodd"/><path d="M271.2,335.19A4,4,0,0,1,267,339c-3.2-.2-6.5-.4-9.7-.7a4,4,0,0,1-3.6-4.4,4,4,0,0,1,4.4-3.6c3.2.3,6.3.5,9.4.7A4.07,4.07,0,0,1,271.2,335.19Z" fill="#7aabd3" fill-rule="evenodd"/><path d="M136.8,293.09a3.93,3.93,0,0,1,5.5-1.3c2.7,1.6,5.4,3.2,8.2,4.8a4,4,0,1,1-3.9,6.9c-2.9-1.6-5.7-3.2-8.4-4.9A4,4,0,0,1,136.8,293.09Z" fill="#7aabd3" fill-rule="evenodd"/><path d="M246.3,333.09a3.92,3.92,0,0,1-4.6,3.3c-3.2-.5-6.4-1.1-9.6-1.7a4,4,0,0,1,1.5-7.9c3.1.6,6.2,1.1,9.3,1.6A4.07,4.07,0,0,1,246.3,333.09Z" fill="#7aabd3" fill-rule="evenodd"/><path d="M158.5,305.39a3.92,3.92,0,0,1,5.3-1.8c2.8,1.4,5.7,2.7,8.6,4a4,4,0,0,1-3.3,7.3c-3-1.3-5.9-2.7-8.8-4.1A4.19,4.19,0,0,1,158.5,305.39Z" fill="#7aabd3" fill-rule="evenodd"/><path d="M221.8,328.49a4,4,0,0,1-4.9,2.9c-3.1-.8-6.3-1.6-9.4-2.5a4,4,0,0,1,2.2-7.6c3.1.9,6.1,1.7,9.1,2.5A3.68,3.68,0,0,1,221.8,328.49Z" fill="#7aabd3" fill-rule="evenodd"/><path d="M181.3,315.59a4,4,0,0,1,5.2-2.3c1.5.6,3,1.1,4.4,1.7s3,1.1,4.5,1.6a4,4,0,0,1-2.6,7.6c-1.5-.5-3.1-1.1-4.6-1.6s-3-1.1-4.6-1.7A4.13,4.13,0,0,1,181.3,315.59Z" fill="#7aabd3" fill-rule="evenodd"/><path d="M96,119.59a4,4,0,0,1-1.2,5.5c-2.4,1.5-4.6,3.1-6.7,4.7a4,4,0,0,1-4.9-6.3c2.3-1.8,4.8-3.5,7.3-5.2A4.05,4.05,0,0,1,96,119.59Z" fill="#7aabd3" fill-rule="evenodd"/><path d="M392.9,239.19a4,4,0,0,1,4.6,3.3,83.42,83.42,0,0,1,1,12.1,4,4,0,0,1-8,0,67.72,67.72,0,0,0-.9-10.9A3.93,3.93,0,0,1,392.9,239.19Z" fill="#7aabd3" fill-rule="evenodd"/><path d="M78.2,133a4.08,4.08,0,0,1,.3,5.7,77.91,77.91,0,0,0-5.1,6.3,4,4,0,1,1-6.5-4.7c1.8-2.4,3.7-4.8,5.7-7A3.88,3.88,0,0,1,78.2,133Z" fill="#7aabd3" fill-rule="evenodd"/><path d="M393.2,269.09A4,4,0,0,1,396,274c-.5,2-1.2,3.9-1.9,5.9-.6,1.6-1.2,3.2-1.9,4.7a4,4,0,0,1-7.3-3.3c.6-1.4,1.2-2.8,1.7-4.2a44.77,44.77,0,0,0,1.6-5.2A4.17,4.17,0,0,1,393.2,269.09Z" fill="#7aabd3" fill-rule="evenodd"/><path d="M65,150.89a4.17,4.17,0,0,1,2.1,5.3c-.5,1.2-1,2.5-1.5,3.7-.5,1.4-1,2.8-1.4,4.3a4,4,0,0,1-7.8-2.1c.5-1.6,1-3.2,1.6-4.8.5-1.4,1.1-2.8,1.7-4.2A3.93,3.93,0,0,1,65,150.89Z" fill="#7aabd3" fill-rule="evenodd"/><path d="M58,174.19a4,4,0,0,1,3.8,4.2c-.1,3-.1,6,.1,9.1a4,4,0,1,1-8,.6,85.55,85.55,0,0,1-.2-10.1A4.17,4.17,0,0,1,58,174.19Z" fill="#7aabd3" fill-rule="evenodd"/><path d="M383.2,292.89a4,4,0,0,1,.8,5.6,67.81,67.81,0,0,1-6.6,7.6,4,4,0,1,1-5.7-5.7,62.44,62.44,0,0,0,5.9-6.8A4.09,4.09,0,0,1,383.2,292.89Z" fill="#7aabd3" fill-rule="evenodd"/><path d="M59.6,199a4,4,0,0,1,4.9,2.8c.8,2.9,1.7,5.8,2.8,8.7a4,4,0,0,1-7.5,2.9c-1.2-3.2-2.2-6.3-3.1-9.5A4.08,4.08,0,0,1,59.6,199Z" fill="#7aabd3" fill-rule="evenodd"/><path d="M366,310.89a4,4,0,0,1-1,5.6c-2.7,1.9-5.5,3.6-8.5,5.3a4,4,0,0,1-3.9-6.9,78.54,78.54,0,0,0,7.8-4.9A3.89,3.89,0,0,1,366,310.89Z" fill="#7aabd3" fill-rule="evenodd"/><path d="M68.1,222.39a3.94,3.94,0,0,1,5.4,1.6c1.4,2.7,3,5.3,4.7,8a3.92,3.92,0,0,1-1.2,5.5,4,4,0,0,1-5.5-1.2c-1.8-2.8-3.5-5.6-5-8.5A3.9,3.9,0,0,1,68.1,222.39Z" fill="#7aabd3" fill-rule="evenodd"/><path d="M344.5,323.29a4,4,0,0,1-2.3,5.2q-4.5,1.8-9.3,3.3a4,4,0,0,1-5-2.6,3.93,3.93,0,0,1,2.6-5c3-.9,5.9-2,8.8-3.1A3.9,3.9,0,0,1,344.5,323.29Z" fill="#7aabd3" fill-rule="evenodd"/><path d="M81.3,243.49a3.91,3.91,0,0,1,5.6.7q2.85,3.6,6,7.2a4,4,0,0,1-.3,5.6,4.08,4.08,0,0,1-5.7-.3q-3.3-3.75-6.3-7.5A4.2,4.2,0,0,1,81.3,243.49Z" fill="#7aabd3" fill-rule="evenodd"/><path d="M320.7,330.89a4,4,0,0,1-3.1,4.7c-3.2.6-6.4,1.2-9.7,1.7a4,4,0,0,1-1.1-7.9c3.1-.5,6.2-1,9.2-1.6A4,4,0,0,1,320.7,330.89Z" fill="#7aabd3" fill-rule="evenodd"/><path d="M97.7,262.29a4,4,0,0,1,5.7-.1c2.2,2.1,4.6,4.3,7,6.3a4.09,4.09,0,0,1,.4,5.7,4,4,0,0,1-5.6.4q-3.75-3.3-7.2-6.6A3.91,3.91,0,0,1,97.7,262.29Z" fill="#7aabd3" fill-rule="evenodd"/><path d="M296.1,334.69a3.94,3.94,0,0,1-3.7,4.2c-3.2.2-6.5.3-9.8.4a4,4,0,1,1-.2-8c3.2-.1,6.3-.2,9.4-.4A4,4,0,0,1,296.1,334.69Z" fill="#7aabd3" fill-rule="evenodd"/><path d="M116.4,278.79a4,4,0,0,1,5.6-.8c2.5,1.9,5,3.7,7.6,5.5a4,4,0,0,1-4.6,6.6c-2.7-1.9-5.3-3.8-7.9-5.7A4.09,4.09,0,0,1,116.4,278.79Z" fill="#7aabd3" fill-rule="evenodd"/><path d="M271.2,335.19A4,4,0,0,1,267,339c-3.2-.2-6.5-.4-9.7-.7a4,4,0,0,1-3.6-4.4,4,4,0,0,1,4.4-3.6c3.2.3,6.3.5,9.4.7A4.07,4.07,0,0,1,271.2,335.19Z" fill="#7aabd3" fill-rule="evenodd"/><path d="M136.8,293.09a3.93,3.93,0,0,1,5.5-1.3c2.7,1.6,5.4,3.2,8.2,4.8a4,4,0,1,1-3.9,6.9c-2.9-1.6-5.7-3.2-8.4-4.9A4,4,0,0,1,136.8,293.09Z" fill="#7aabd3" fill-rule="evenodd"/><path d="M246.3,333.09a3.92,3.92,0,0,1-4.6,3.3c-3.2-.5-6.4-1.1-9.6-1.7a4,4,0,0,1,1.5-7.9c3.1.6,6.2,1.1,9.3,1.6A4.07,4.07,0,0,1,246.3,333.09Z" fill="#7aabd3" fill-rule="evenodd"/><path d="M158.5,305.39a3.92,3.92,0,0,1,5.3-1.8c2.8,1.4,5.7,2.7,8.6,4a4,4,0,0,1-3.3,7.3c-3-1.3-5.9-2.7-8.8-4.1A4.19,4.19,0,0,1,158.5,305.39Z" fill="#7aabd3" fill-rule="evenodd"/><path d="M221.8,328.49a4,4,0,0,1-4.9,2.9c-3.1-.8-6.3-1.6-9.4-2.5a4,4,0,0,1,2.2-7.6c3.1.9,6.1,1.7,9.1,2.5A3.68,3.68,0,0,1,221.8,328.49Z" fill="#7aabd3" fill-rule="evenodd"/><path d="M181.3,315.59a4,4,0,0,1,5.2-2.3c1.5.6,3,1.1,4.4,1.7s3,1.1,4.5,1.6a4,4,0,0,1-2.6,7.6c-1.5-.5-3.1-1.1-4.6-1.6s-3-1.1-4.6-1.7A4.13,4.13,0,0,1,181.3,315.59Z" fill="#7aabd3" fill-rule="evenodd"/><path d="M282.5,342.29a7,7,0,0,1-4.9-2,7.07,7.07,0,0,1-2.1-4.9,7.2,7.2,0,0,1,2-5,6.89,6.89,0,0,1,4.9-2.1c3.2-.1,6.3-.2,9.3-.4a6.89,6.89,0,0,1,7.4,6.5h0a7,7,0,0,1-6.5,7.4c-3.3.3-6.6.5-10.1.5Z" fill="#fff"/><path d="M292.1,333.89h0c-3.1.2-6.3.3-9.6.4a1,1,0,0,0-1,1,1,1,0,0,0,1,1h0c3.2-.1,6.5-.2,9.6-.4a1,1,0,0,0,.9-1.1C293.1,334.39,292.6,333.89,292.1,333.89Z" fill="#fff"/><path d="M267.2,342h-.4c-3.4-.2-6.7-.4-9.8-.7a7.07,7.07,0,0,1-4.7-2.5,6.82,6.82,0,0,1-1.6-5.1,7,7,0,0,1,7.6-6.3c3.2.3,6.3.5,9.3.7a6.94,6.94,0,0,1,6.6,7.3h0a6.68,6.68,0,0,1-2.3,4.8A6.92,6.92,0,0,1,267.2,342Z" fill="#fff"/><path d="M257.6,333.29a1,1,0,0,0-1,.9,1.17,1.17,0,0,0,.2.7,1.4,1.4,0,0,0,.7.4c3.1.3,6.3.5,9.6.7.4,0,.6-.1.7-.3a.91.91,0,0,0,.3-.7,1,1,0,0,0-1-1c-2.9-.1-6.1-.3-9.5-.7Z" fill="#fff"/><path d="M307.4,340.39a7.29,7.29,0,0,1-4.2-1.4,6.7,6.7,0,0,1-2.7-4.6,6.85,6.85,0,0,1,1.3-5.2,6.7,6.7,0,0,1,4.6-2.7c3.1-.5,6.1-1,9-1.6a7,7,0,0,1,8.3,5.5h0a7,7,0,0,1-5.5,8.3c-3.3.7-6.6,1.2-9.8,1.7A3.33,3.33,0,0,0,307.4,340.39Z" fill="#fff"/><path d="M316.8,330.69h-.2c-3,.6-6.2,1.2-9.4,1.6a1.4,1.4,0,0,0-.7.4,1.17,1.17,0,0,0-.2.7,1.4,1.4,0,0,0,.4.7,1.17,1.17,0,0,0,.7.2c3.2-.5,6.3-1,9.5-1.6a1,1,0,0,0,.8-1.2A.88.88,0,0,0,316.8,330.69Z" fill="#7aabd3"/><path d="M242.4,339.49a4.1,4.1,0,0,1-1.1-.1c-3.1-.5-6.3-1-9.7-1.7a7,7,0,0,1-5.6-8.2,7.29,7.29,0,0,1,3-4.5,7.57,7.57,0,0,1,5.3-1.1c3.2.6,6.3,1.1,9.2,1.6a7.15,7.15,0,0,1,5.9,8h0A7.16,7.16,0,0,1,242.4,339.49Z" fill="#fff"/><path d="M232.9,329.79a.85.85,0,0,0-.6.2c-.1.1-.4.3-.4.6a1.1,1.1,0,0,0,.8,1.2c3.4.6,6.5,1.2,9.5,1.6a.89.89,0,0,0,1.1-.8.94.94,0,0,0-.8-1.1c-3-.5-6.2-1-9.4-1.6C233,329.79,233,329.79,232.9,329.79Z" fill="#fff"/><path d="M331.7,334.89a7.22,7.22,0,0,1-3.2-.8,7,7,0,0,1,1.2-12.8c2.9-.9,5.8-1.9,8.6-3a7.05,7.05,0,0,1,9.1,4,7,7,0,0,1-4,9.1c-3.1,1.2-6.3,2.3-9.5,3.3A18,18,0,0,1,331.7,334.89Z" fill="#fff"/><path d="M340.7,323.79a.76.76,0,0,0-.4.1c-2.9,1.2-6,2.2-9,3.2a1.58,1.58,0,0,0-.6.5.76.76,0,0,0-.1.7,1,1,0,0,0,.5.6,1,1,0,0,0,.8.1c3.1-1,6.2-2,9.1-3.2a.79.79,0,0,0,.5-.5,1.07,1.07,0,0,0,0-.8h0A.71.71,0,0,0,340.7,323.79Z" fill="#7aabd3"/><path d="M218,334.49a9.85,9.85,0,0,1-1.7-.2c-3.2-.8-6.4-1.7-9.5-2.6A7.05,7.05,0,0,1,202,323a6.92,6.92,0,0,1,8.6-4.8q4.65,1.35,9,2.4a7.3,7.3,0,0,1,4.3,3.2,7,7,0,0,1,.8,5.3,7.3,7.3,0,0,1-3.2,4.3A5.8,5.8,0,0,1,218,334.49Z" fill="#fff"/><path d="M208.7,324a4.33,4.33,0,0,0-.5.1,1,1,0,0,0-.5.6,1,1,0,0,0,.7,1.2c3,.9,6.1,1.7,9.3,2.5a1,1,0,0,0,1.2-.7h0a1.06,1.06,0,0,0-.1-.8,1.58,1.58,0,0,0-.6-.5c-3-.7-6.1-1.6-9.2-2.5A.37.37,0,0,1,208.7,324Z" fill="#fff"/><path d="M194,327.39a6.2,6.2,0,0,1-2.3-.4c-1.5-.5-3.1-1.1-4.6-1.6s-3.1-1.1-4.6-1.7a7.41,7.41,0,0,1-3.9-3.7,6.76,6.76,0,0,1-.1-5.4,6.94,6.94,0,0,1,9-4c1.5.6,2.9,1.1,4.4,1.7s2.9,1.1,4.4,1.6a7,7,0,0,1,4.3,8.9A6.92,6.92,0,0,1,194,327.39Z" fill="#fff"/><path d="M185,316.09a.87.87,0,0,0-.9.6h0a1.1,1.1,0,0,0,0,.8.79.79,0,0,0,.6.5c1.5.6,3,1.1,4.5,1.7s3,1.1,4.6,1.6a1,1,0,0,0,.7-1.9c-1.5-.5-3-1.1-4.5-1.6s-3-1.1-4.5-1.7Z" fill="#fff"/><path d="M354.6,325.19a6.83,6.83,0,0,1-6.1-3.6,6.94,6.94,0,0,1,2.7-9.5c2.6-1.5,5.2-3.1,7.6-4.7a6.44,6.44,0,0,1,5.2-1.1,7.14,7.14,0,0,1,4.5,2.9h0a6.94,6.94,0,0,1-1.8,9.7,97.05,97.05,0,0,1-8.7,5.4A5.8,5.8,0,0,1,354.6,325.19Z" fill="#fff"/><path d="M362.8,312.19a.73.73,0,0,0-.6.2,65,65,0,0,1-8.1,5,1,1,0,0,0,1,1.8c2.8-1.6,5.6-3.3,8.2-5.1a1,1,0,0,0,.2-1.4.87.87,0,0,0-.6-.4A.1.1,0,0,0,362.8,312.19Z" fill="#7aabd3"/><path d="M170.8,318.19a6.71,6.71,0,0,1-2.8-.6c-3-1.4-6-2.8-8.9-4.2a7,7,0,0,1-3.2-9.4h0a7.1,7.1,0,0,1,4-3.6,6.93,6.93,0,0,1,5.3.3c2.8,1.3,5.6,2.7,8.5,4a7.09,7.09,0,0,1-2.9,13.5Z" fill="#fff"/><path d="M161.2,306.69a1,1,0,0,0,.5,1.3c2.8,1.4,5.7,2.7,8.7,4.1a1,1,0,0,0,.8-1.8c-2.9-1.3-5.8-2.7-8.7-4a1.18,1.18,0,0,0-.8-.1A2,2,0,0,0,161.2,306.69Z" fill="#fff"/><path d="M374.5,310.29a7,7,0,0,1-4.9-2,7.06,7.06,0,0,1-.1-9.9,68,68,0,0,0,5.7-6.5,6.9,6.9,0,0,1,9.8-1.3h0a7,7,0,0,1,1.4,9.8,84.8,84.8,0,0,1-6.9,7.9A7.38,7.38,0,0,1,374.5,310.29Z" fill="#fff"/><path d="M380.8,295.09a.91.91,0,0,0-.8.4,67,67,0,0,1-6.2,7.1,1,1,0,0,0,1.4,1.4,88,88,0,0,0,6.4-7.3,1.08,1.08,0,0,0-.2-1.4h0A1.42,1.42,0,0,0,380.8,295.09Z" fill="#7aabd3"/><path d="M148.5,307a6.92,6.92,0,0,1-3.4-.9c-2.8-1.5-5.5-3.2-8.5-5a7,7,0,0,1-2.3-9.6,7.3,7.3,0,0,1,4.3-3.2,7.53,7.53,0,0,1,5.3.8c2.7,1.7,5.4,3.2,8.1,4.7a7,7,0,0,1-1.5,12.8A4.77,4.77,0,0,1,148.5,307Z" fill="#fff"/><path d="M140.3,294.19h-.2a.87.87,0,0,0-.6.4h0a1.08,1.08,0,0,0,.3,1.4c2.9,1.7,5.6,3.3,8.3,4.8a1.18,1.18,0,0,0,.8.1,1.33,1.33,0,0,0,.6-.5,1.18,1.18,0,0,0,.1-.8c0-.2-.2-.4-.5-.6-2.7-1.5-5.5-3.1-8.3-4.8Z" fill="#7aabd3"/><path d="M127.4,293.79a7.21,7.21,0,0,1-4-1.2c-2.7-1.9-5.4-3.8-8-5.8A7,7,0,0,1,114,277h0a6.7,6.7,0,0,1,4.6-2.7,6.52,6.52,0,0,1,5.2,1.4c2.6,2,5.1,3.8,7.5,5.5a7,7,0,0,1,1.8,9.7A6.88,6.88,0,0,1,127.4,293.79Z" fill="#fff"/><path d="M118.8,280.59a1.06,1.06,0,0,0,.2,1.4c2.5,1.9,5.2,3.8,7.8,5.7a1,1,0,0,0,1.1-1.7c-2.5-1.7-5-3.6-7.7-5.6A1,1,0,0,0,118.8,280.59Z" fill="#7aabd3"/><path d="M388.6,289.89a7.17,7.17,0,0,1-2.9-.6,7,7,0,0,1-3.5-9.3c.6-1.3,1.1-2.7,1.6-4,.6-1.6,1.1-3.2,1.6-4.9a7,7,0,0,1,8.6-4.9h0a7.07,7.07,0,0,1,4.3,3.3,7,7,0,0,1,.7,5.3c-.5,2-1.2,4.1-1.9,6.1-.7,1.8-1.3,3.4-2,4.9a7.08,7.08,0,0,1-3.9,3.7A7.83,7.83,0,0,1,388.6,289.89Z" fill="#fff"/><path d="M392.2,272a1.09,1.09,0,0,0-1,.7c-.5,1.9-1.1,3.7-1.7,5.4-.5,1.4-1.1,2.9-1.8,4.4a1,1,0,0,0,.5,1.3,1.1,1.1,0,0,0,.8,0,.82.82,0,0,0,.5-.5q.9-2.1,1.8-4.5c.7-1.9,1.3-3.7,1.8-5.6a1.06,1.06,0,0,0-.1-.8,1,1,0,0,0-.6-.5h0C392.4,272,392.3,272,392.2,272Z" fill="#7aabd3"/><path d="M107.7,278.49a7.07,7.07,0,0,1-4.6-1.7c-2.5-2.1-4.9-4.4-7.3-6.7a7,7,0,0,1-.2-9.9h0a7,7,0,0,1,4.9-2.2,6.69,6.69,0,0,1,5,1.9c2.2,2.1,4.5,4.2,6.8,6.2a6.78,6.78,0,0,1,2.4,4.8A7.18,7.18,0,0,1,113,276a6.78,6.78,0,0,1-4.8,2.4A.9.9,0,0,1,107.7,278.49Z" fill="#fff"/><path d="M99.9,264.39a1,1,0,0,0,0,1.4c2.3,2.2,4.7,4.4,7.1,6.5.3.2.6.3.7.2a1.33,1.33,0,0,0,.7-.3c.2-.3.3-.6.2-.7a1.33,1.33,0,0,0-.3-.7c-2.4-2.1-4.8-4.2-7.1-6.4a1.33,1.33,0,0,0-.7-.3C100.4,264,100.1,264.09,99.9,264.39Z" fill="#7aabd3"/><path d="M394.5,261.69a7,7,0,0,1-4.9-2,7.07,7.07,0,0,1-2.1-4.9,63.84,63.84,0,0,0-.9-10.5,6.9,6.9,0,0,1,1.2-5.2,7,7,0,0,1,12.6,3,76.45,76.45,0,0,1,1,12.6,7.2,7.2,0,0,1-2,5,7,7,0,0,1-4.9,2Z" fill="#fff"/><path d="M393.6,242.19h-.2c-.4.1-.6.3-.6.4a3.1,3.1,0,0,0-.2.7,74.94,74.94,0,0,1,.9,11.4.91.91,0,0,0,.3.7,1.14,1.14,0,0,0,.7.3h0a.91.91,0,0,0,.7-.3,1.14,1.14,0,0,0,.3-.7,79.23,79.23,0,0,0-1-11.7A.88.88,0,0,0,393.6,242.19Z" fill="#7aabd3"/><path d="M89.9,261a7,7,0,0,1-5.2-2.3c-2.3-2.6-4.5-5.2-6.4-7.6a6.86,6.86,0,0,1-1.5-5.1,6.79,6.79,0,0,1,2.6-4.7h0a7,7,0,0,1,9.8,1.1c2,2.5,3.9,4.8,5.9,7a7,7,0,0,1-.6,9.9A6.88,6.88,0,0,1,89.9,261Z" fill="#fff"/><path d="M83.2,245.89a.87.87,0,0,0-.4.7,1,1,0,0,0,.2.7c1.9,2.4,4,4.9,6.2,7.4a1,1,0,1,0,1.5-1.3c-2-2.3-4.1-4.7-6.1-7.3a1,1,0,0,0-1.4-.2Z" fill="#7aabd3"/><path d="M74.9,241.19a7.72,7.72,0,0,1-1.5-.2,7,7,0,0,1-4.4-3.1c-1.8-2.7-3.5-5.7-5.1-8.7a7,7,0,0,1-.6-5.3,6.77,6.77,0,0,1,3.4-4.2,7.06,7.06,0,0,1,9.5,2.8c1.4,2.7,3,5.3,4.6,7.8a7.06,7.06,0,0,1-2.2,9.7A6.28,6.28,0,0,1,74.9,241.19Z" fill="#fff"/><path d="M70,224.89a.9.9,0,0,0-.5.1h0a1.33,1.33,0,0,0-.5.6,1.26,1.26,0,0,0,.1.8c1.6,2.9,3.2,5.7,4.9,8.3a2.2,2.2,0,0,0,.6.5,1.7,1.7,0,0,0,.7-.1.87.87,0,0,0,.4-.6,1.7,1.7,0,0,0-.1-.7c-1.7-2.7-3.3-5.4-4.8-8.2A.83.83,0,0,0,70,224.89Z" fill="#7aabd3"/><path d="M63.6,219a7.11,7.11,0,0,1-6.6-4.5,101.49,101.49,0,0,1-3.2-9.8,7,7,0,0,1,.7-5.3,6.89,6.89,0,0,1,4.3-3.3,7,7,0,0,1,5.3.7,6.89,6.89,0,0,1,3.3,4.3c.7,2.8,1.7,5.6,2.7,8.4a6.76,6.76,0,0,1-.2,5.4,7.41,7.41,0,0,1-3.9,3.7A6.72,6.72,0,0,1,63.6,219Z" fill="#fff"/><path d="M60.6,201.89h-.3a1,1,0,0,0-.6.5.76.76,0,0,0-.1.7,89.4,89.4,0,0,0,3,9.2,1,1,0,0,0,1.3.6,1.58,1.58,0,0,0,.6-.5.72.72,0,0,0,0-.8c-1.1-3-2.1-6-2.9-9a1,1,0,0,0-.5-.6A4.33,4.33,0,0,0,60.6,201.89Z" fill="#7aabd3"/><path d="M57.9,194.79a7,7,0,0,1-4.5-1.7,6.78,6.78,0,0,1-2.4-4.8,92,92,0,0,1-.2-10.5,7,7,0,0,1,7.3-6.6h0a6.94,6.94,0,0,1,6.6,7.3,84.17,84.17,0,0,0,.1,8.7,7,7,0,0,1-6.5,7.5C58.3,194.79,58.1,194.79,57.9,194.79Z" fill="#fff"/><path d="M57.8,177.19a1.14,1.14,0,0,0-.7.3.91.91,0,0,0-.3.7,78.5,78.5,0,0,0,.1,9.7.91.91,0,0,0,.3.7.75.75,0,0,0,.7.2.91.91,0,0,0,.7-.3.75.75,0,0,0,.2-.7,59,59,0,0,1-.1-9.4,1,1,0,0,0-.9-1.2Z" fill="#7aabd3"/><path d="M60.3,170.09a6.28,6.28,0,0,1-1.9-.3,7,7,0,0,1-4.8-8.6c.5-1.7,1.1-3.4,1.6-5s1.2-3.1,1.8-4.4a6.77,6.77,0,0,1,3.9-3.7,6.9,6.9,0,0,1,4.7-.1,7,7,0,0,1-1.1-9.3,81.86,81.86,0,0,1,5.9-7.3,7.09,7.09,0,0,1,4.9-2.3,6.92,6.92,0,0,1,4.4,1.3,7.12,7.12,0,0,1,1.8-9.2c2.4-1.8,4.9-3.6,7.6-5.3a7.06,7.06,0,0,1,9.7,2.1h0a7.08,7.08,0,0,1,.9,5.3,7,7,0,0,1-3.1,4.4c-2.2,1.4-4.4,3-6.5,4.6a7.37,7.37,0,0,1-5.2,1.4,6.07,6.07,0,0,1-3.2-1.3,7.49,7.49,0,0,1,1,3.3,6.87,6.87,0,0,1-1.8,5,71.13,71.13,0,0,0-4.9,6,7.12,7.12,0,0,1-7.9,2.6,7,7,0,0,1,1.8,8.1,30,30,0,0,0-1.4,3.6c-.5,1.3-.9,2.7-1.3,4.1A7.49,7.49,0,0,1,60.3,170.09Z" fill="#fff"/><path d="M63.4,153.49c-.2,0-.3,0-.4.1a.82.82,0,0,0-.5.5c-.5,1.2-1.1,2.6-1.6,4.1s-1,3-1.5,4.6a1,1,0,1,0,1.9.5,33.92,33.92,0,0,1,1.5-4.5c.5-1.3,1-2.7,1.6-3.9a1,1,0,0,0-.5-1.3A2,2,0,0,1,63.4,153.49Z" fill="#7aabd3"/><path d="M75.5,135h0a1.08,1.08,0,0,0-.7.3,60.51,60.51,0,0,0-5.5,6.8,1.08,1.08,0,0,0,.2,1.4,1.06,1.06,0,0,0,1.4-.2,66.57,66.57,0,0,1,5.3-6.6,1.33,1.33,0,0,0,.3-.7,1.08,1.08,0,0,0-.3-.7h0A.74.74,0,0,0,75.5,135Z" fill="#7aabd3"/><path d="M92.6,120.69c-.2,0-.4,0-.5.2-2.5,1.6-4.9,3.3-7.1,5a.87.87,0,0,0-.4.7,1,1,0,0,0,.2.7.87.87,0,0,0,.7.4,1,1,0,0,0,.7-.2c2.2-1.7,4.5-3.4,6.9-4.9a.72.72,0,0,0,.4-.6,1.18,1.18,0,0,0-.1-.8A.79.79,0,0,0,92.6,120.69Z" fill="#7aabd3"/><path d="M222.9,397l-13.7-3.3-2.8-16.9-2.5-.6-.1-.1h-.9v-.8l-.6-.5.1-.1a8.79,8.79,0,0,1-.6-1,7.94,7.94,0,0,1-.7-5.6,7.61,7.61,0,0,1,3.1-4.6h.1l-1.3-8.1-3.1-.7-.3.4-.7-.7h-.2l-.3-.5-.9-.8.1-.1c-.2-.3-.4-.7-.6-1a7.75,7.75,0,0,1-.7-5.5,7.61,7.61,0,0,1,3.1-4.6c.3-.2.7-.4,1-.6v-.2l.4-.1-1.6-9.5c-3.6-.9-6.9-1.7-9.5-2.3q-2.25-.6-3.6-.9l-1.2-.3h-1.7l.1-.4-10.5-2.9a34.81,34.81,0,0,1-8.5-3.4A30.42,30.42,0,0,1,157,315l-.3-.3-.2-.4a12.09,12.09,0,0,1-1.6-3.8,10.89,10.89,0,0,1,.2-4.7l.1-.2a10.29,10.29,0,0,1,1.6-3.4,12.16,12.16,0,0,1,3.3-2.9l.5-.3.5-.1c6.9-1.7,11-1.7,17.7-1.1h.2l12.5,1.7.2.1,1.2.3h0c.5.1,1.3.3,2.2.5l1.4.3c2.6.6,5.9,1.3,9.6,2.2l5.6-7.7-.3-.2.1-.2a8.79,8.79,0,0,1-.6-1,7.75,7.75,0,0,1-.7-5.5,7.61,7.61,0,0,1,3.1-4.6c.3-.2.7-.4,1-.6v-.2l1-.2.1-.1h.5l.6-.1,3.9.9,4.8-6.6v-.1a7.94,7.94,0,0,1-.7-5.6,7.61,7.61,0,0,1,3.1-4.6,8.79,8.79,0,0,1,1-.6l-.1-.2,2.2-.5.5.1h.3v.1l1.7.4L243.3,252l13.8,3.3-.9,3-15.3,54.6c2.6.8,4.9,1.6,6.7,2.2l2.6.9.1-.3,1.2.7h1.7l-.2.6,26.3,9.8,14-11.2,1.7.8,16.2,7.5L295,339.59l7.4,21.3-19.8-.6-.8-1.7L275.1,344l-29.3-3.3h-1.6v-.2c-.7-.1-1.6-.2-2.7-.4-1.9-.3-4.3-.7-7-1.1Zm-11.1-5.7,8.7,2.1h0l11.5-58.6,1.4.2c3.3.5,6.2,1,8.4,1.3,1.3.2,2.3.3,3,.4a2.81,2.81,0,0,0,.8.1l.4.1,30.8,3.4,7.4,16.1,13.6.4-6.6-19,14.5-14-12.3-5.7-13.8,11.1L246.5,317c-2.1-.7-5-1.6-8.1-2.6L237,314l16.1-57.4-8.7-2.1-10.1,13.8-3.7-.9h-.2a.35.35,0,0,0-.2.1,3.13,3.13,0,0,0-1,.5,4.63,4.63,0,0,0-1.9,2.9,4.82,4.82,0,0,0,.4,3.5,3.11,3.11,0,0,0,.4.6l.7.9-7.3,10-5-1.2h-.4a.37.37,0,0,0-.3.1,4.67,4.67,0,0,0-1,.5,4.82,4.82,0,0,0-1.9,2.9,4.93,4.93,0,0,0,.4,3.4c.2.4.5.7.6.9h.3l.2.5.3.2v.1l.8.6-8.4,11.6-1-.2c-4-.9-7.7-1.8-10.5-2.4l-1.4-.3c-.9-.2-1.6-.4-2.2-.5a6.37,6.37,0,0,1-.9-.2l-.5-.1-12.2-1.7a43.45,43.45,0,0,0-16.8,1.1h0a12.32,12.32,0,0,0-2.6,2.2,7.28,7.28,0,0,0-1.2,2.5v.1a7.25,7.25,0,0,0-.2,3.2,8.55,8.55,0,0,0,1.3,3h0a31.57,31.57,0,0,0,6.6,5.7,33,33,0,0,0,7.6,3.1h.1l11.7,3.2h.4l.2.2.9.2q1.35.3,3.6.9c2.8.7,6.5,1.6,10.4,2.6l1,.2,2.3,14.3-1.2.3-.1.1h-.5c-.1,0-.1.1-.2.1a3.13,3.13,0,0,0-1,.5,4.63,4.63,0,0,0-1.9,2.9,4.47,4.47,0,0,0,.4,3.4l.6.9h0l.3.3,5.2,1.2,2,12.2-1,.5a5.74,5.74,0,0,0-.7.4,4.63,4.63,0,0,0-1.9,2.9,5.28,5.28,0,0,0,.4,3.5c.2.4.5.7.6.9l.2.2h0l.2.1,3.6.9Z" fill="#fff"/><path d="M244.3,254.59l8.8,2.1L237,314.09c7.4,2.4,13.4,4.4,13.4,4.4l29.2,10.9v-.1l13.8-11,12.3,5.7-14.5,14,6.6,19-13.6-.4-7.3-16v-.1l-31-3.5s-6.3-.9-14-2.1l-11.4,58.6-8.8-2.1-2.8-16.9-3.8-.9a4.89,4.89,0,0,1-1.4-4.7,5,5,0,0,1,3.3-3.6l.3.1L205.2,353l-5.2-1.2a4.89,4.89,0,0,1-1.4-4.7,5,5,0,0,1,3.3-3.6l1.7.4-2.5-15.1c-8.6-2.1-16.3-4.1-16.3-4.1l-11.9-3.3c-6.4-1.8-9.6-3.6-14.5-8.9-1.3-2.3-1.8-3.7-1.1-6.4.6-2.1,1.3-3.1,3.8-4.8,6.4-1.6,10.1-1.6,16.8-1.1l12.3,1.7s7.8,1.7,16.4,3.7l8.9-12.2-1.7-.4a4.89,4.89,0,0,1-1.4-4.7,5,5,0,0,1,3.3-3.6l5.2,1.2,7.4-10.2-.3-.1a4.89,4.89,0,0,1-1.4-4.7,5,5,0,0,1,3.3-3.6l3.8.9Z" fill="#7aabd3"/><path d="M264,116.19s-5.1-7.3-6.2-9c-2-3.1-5.1-7.8-8.3-13.2-3.5-6-6.3-11.3-8.4-15.8-2.7-6-4-10.6-4-14.1a26.9,26.9,0,1,1,53.8,0c0,3.5-1.3,8.1-4,14.1A140.43,140.43,0,0,1,278.5,94c-3.2,5.3-6.3,10.1-8.3,13.2C269,108.89,264,116.19,264,116.19Zm-.1-76A23.9,23.9,0,0,0,240,64.09c0,3,1.3,7.3,3.7,12.9a151.78,151.78,0,0,0,8.2,15.5c3.1,5.3,6.2,10,8.2,13,1.1,1.7,2.1,3.1,2.7,4,.1.1.1.2.2.2l.9-.6.9.6c.1-.1.1-.2.2-.2.7-1,1.6-2.3,2.7-4,2-3,5.1-7.7,8.2-13A151.78,151.78,0,0,0,284.1,77c2.5-5.5,3.7-9.9,3.7-12.9A23.9,23.9,0,0,0,263.9,40.19Zm0,38a15.4,15.4,0,1,1,15.4-15.4A15.41,15.41,0,0,1,263.9,78.19Zm0-27.8a12.4,12.4,0,1,0,12.4,12.4A12.27,12.27,0,0,0,263.9,50.39Z" fill="#fff"/><path d="M263.9,40.19A23.9,23.9,0,0,0,240,64.09c0,13.2,23.9,46.9,23.9,46.9s23.9-33.7,23.9-46.9A23.9,23.9,0,0,0,263.9,40.19Zm0,38a15.4,15.4,0,1,1,15.4-15.4A15.41,15.41,0,0,1,263.9,78.19Z" fill="#ef9248" fill-rule="evenodd"/></g></g></svg>