<svg xmlns="http://www.w3.org/2000/svg" viewBox="0 0 467.2 446.99"><title>Journey 2</title><g id="Layer_2" data-name="Layer 2"><g id="Слой_1" data-name="Слой 1"><g id="Journey_2" data-name="Journey 2"><path d="M99.1,67.79c50.3-74.2,133.2-72.9,168.3-62.9,70.8,23.6,133.7,106.9,144.7,168.3s55.1,102.2,55.1,158.9-59.8,84.9-129,83.4S292.6,447,196.6,447,0,352.59,0,266.09,36.1,160.59,99.1,67.79Z" fill="#ffe3e3"/><path d="M105.5,413.09h0a4.48,4.48,0,0,1-4.5-4.5,4.82,4.82,0,0,1,1.3-3.2,4.22,4.22,0,0,1,3.2-1.3,5.44,5.44,0,0,0,2.7-.7,4.08,4.08,0,0,1,3.4-.3,4.87,4.87,0,0,1,2.7,2.2,4.08,4.08,0,0,1,.3,3.4,4.87,4.87,0,0,1-2.2,2.7A15.29,15.29,0,0,1,105.5,413.09Zm4.8-7.2a1.85,1.85,0,0,0-.7.2,8.57,8.57,0,0,1-4.1,1,2.1,2.1,0,0,0-1.1.4,1.5,1.5,0,0,0-.4,1.1,1.54,1.54,0,0,0,1.5,1.5h0a11.82,11.82,0,0,0,5.5-1.4,1.27,1.27,0,0,0,.7-.9,1.38,1.38,0,0,0-.1-1.1,1.27,1.27,0,0,0-.9-.7A.6.6,0,0,0,110.3,405.89Zm6.3-3.7a2,2,0,0,1-.8-.1,4.62,4.62,0,0,1-3.6-5.3,43.71,43.71,0,0,1,1.2-5.2,4.5,4.5,0,0,1,8.7,2.3c-.4,1.5-.7,3-1,4.6A4.59,4.59,0,0,1,116.6,402.19Zm1.1-10.8a1.5,1.5,0,0,0-1.5,1.1c-.4,1.6-.8,3.3-1.1,5a1.39,1.39,0,0,0,.2,1.1,1.33,1.33,0,0,0,1,.6,1.56,1.56,0,0,0,1.8-1.2c.3-1.6.7-3.2,1.1-4.8a1.49,1.49,0,0,0-1.1-1.8Zm4.3-5.2a5.37,5.37,0,0,1-2.1-.5,4.48,4.48,0,0,1-1.9-6.1,55,55,0,0,1,2.8-4.8,4.42,4.42,0,0,1,2.9-1.9,4.53,4.53,0,0,1,3.4.7,4.42,4.42,0,0,1,1.9,2.9,4.53,4.53,0,0,1-.7,3.4,36.42,36.42,0,0,0-2.3,3.9A4.67,4.67,0,0,1,122,386.19Zm2.5-10.4h-.3a2.07,2.07,0,0,0-1,.6,48.26,48.26,0,0,0-2.6,4.5,1.49,1.49,0,0,0,.6,2,1.46,1.46,0,0,0,2-.6q1.2-2.25,2.4-4.2a1.39,1.39,0,0,0,.2-1.1,2.07,2.07,0,0,0-.6-1A1.17,1.17,0,0,0,124.5,375.79Zm8.2-2.6a4.55,4.55,0,0,1-3.6-1.8,4.5,4.5,0,0,1,1-6.3,40.06,40.06,0,0,1,4.9-3,4.54,4.54,0,1,1,4.1,8.1,21.63,21.63,0,0,0-3.6,2.2A5.66,5.66,0,0,1,132.7,373.19Zm4.3-8.6a1.85,1.85,0,0,0-.7.2q-2.25,1.2-4.5,2.7a1.46,1.46,0,0,0-.3,2.1,1.55,1.55,0,0,0,2.1.3,33.36,33.36,0,0,1,4-2.5,1.63,1.63,0,0,0,.7-2A1.56,1.56,0,0,0,137,364.59Zm11.4,2.6a4.54,4.54,0,0,1-4.5-4,4.74,4.74,0,0,1,.9-3.3,4.79,4.79,0,0,1,3-1.7,49.33,49.33,0,0,1,5.5-.3,4.48,4.48,0,0,1,4.5,4.5,4.82,4.82,0,0,1-1.3,3.2,4.22,4.22,0,0,1-3.2,1.3,34,34,0,0,0-4.5.3Zm5-6.3a44.05,44.05,0,0,0-5.2.3,1.1,1.1,0,0,0-1,.6,1.43,1.43,0,0,0-.3,1.1,1.5,1.5,0,0,0,1.7,1.3,37.49,37.49,0,0,1,4.8-.3,2.1,2.1,0,0,0,1.1-.4,1.5,1.5,0,0,0,.4-1.1A1.47,1.47,0,0,0,153.4,360.89Zm233,6.1a4.5,4.5,0,0,1-.2-9c1.5-.1,3.1-.2,4.6-.4a4.74,4.74,0,0,1,3.3.9,4.79,4.79,0,0,1,1.7,3,4.5,4.5,0,0,1-3.9,5,49,49,0,0,1-5.4.4Zm5-6.4h-.2c-1.6.2-3.3.3-4.9.4a1.42,1.42,0,0,0-1.4,1.6,1.45,1.45,0,0,0,1.5,1.4h.1c1.7-.1,3.4-.2,5.1-.4a1.5,1.5,0,0,0,1.3-1.7,1.1,1.1,0,0,0-.6-1A1.61,1.61,0,0,0,391.4,360.59Zm-17,6.3h-5a4.5,4.5,0,0,1,0-9h5a4.5,4.5,0,0,1,0,9Zm-5-6a1.5,1.5,0,0,0,0,3h5a1.5,1.5,0,0,0,0-3Zm-12,6h-5a4.5,4.5,0,0,1,0-9h5a4.5,4.5,0,0,1,0,9Zm-5-6a1.5,1.5,0,0,0,0,3h5a1.5,1.5,0,0,0,0-3Zm-12,6h-5a4.5,4.5,0,0,1,0-9h5a4.5,4.5,0,0,1,0,9Zm-5-6a1.5,1.5,0,0,0,0,3h5a1.5,1.5,0,0,0,0-3Zm-12,6h-5a4.5,4.5,0,0,1,0-9h5a4.5,4.5,0,0,1,0,9Zm-5-6a1.5,1.5,0,0,0,0,3h5a1.5,1.5,0,0,0,0-3Zm-12,6h-5a4.5,4.5,0,0,1,0-9h5a4.5,4.5,0,0,1,0,9Zm-5-6a1.5,1.5,0,0,0,0,3h5a1.5,1.5,0,0,0,0-3Zm-12,6h-5a4.5,4.5,0,0,1,0-9h5a4.5,4.5,0,0,1,0,9Zm-5-6a1.5,1.5,0,0,0,0,3h5a1.5,1.5,0,0,0,0-3Zm-12,6h-5a4.5,4.5,0,0,1,0-9h5a4.5,4.5,0,0,1,0,9Zm-5-6a1.5,1.5,0,0,0,0,3h5a1.5,1.5,0,0,0,0-3Zm-12,6h-5a4.5,4.5,0,1,1,0-9h5a4.5,4.5,0,0,1,0,9Zm-5-6a1.5,1.5,0,1,0,0,3h5a1.5,1.5,0,0,0,0-3Zm-12,6h-5a4.5,4.5,0,1,1,0-9h5a4.5,4.5,0,0,1,0,9Zm-5-6a1.5,1.5,0,1,0,0,3h5a1.5,1.5,0,0,0,0-3Zm-12,6h-5a4.5,4.5,0,1,1,0-9h5a4.5,4.5,0,0,1,0,9Zm-5-6a1.5,1.5,0,1,0,0,3h5a1.5,1.5,0,0,0,0-3Zm-12,6h-5a4.5,4.5,0,1,1,0-9h5a4.5,4.5,0,0,1,0,9Zm-5-6a1.5,1.5,0,1,0,0,3h5a1.5,1.5,0,0,0,0-3Zm-12,6h-5a4.5,4.5,0,1,1,0-9h5a4.5,4.5,0,0,1,0,9Zm-5-6a1.5,1.5,0,1,0,0,3h5a1.5,1.5,0,0,0,0-3Zm-12,6h-5a4.5,4.5,0,1,1,0-9h5a4.5,4.5,0,0,1,0,9Zm-5-6a1.5,1.5,0,1,0,0,3h5a1.5,1.5,0,0,0,0-3Zm237.7,3.2a4.53,4.53,0,0,1-4-6.6,4.67,4.67,0,0,1,2.6-2.2c1.5-.5,3-1,4.4-1.6a5,5,0,0,1,3.4,0,4.23,4.23,0,0,1,2.4,2.5,4.61,4.61,0,0,1-2.5,5.9,38.25,38.25,0,0,1-5.1,1.8A4.3,4.3,0,0,1,403.1,364.09Zm4.7-7.7a1.27,1.27,0,0,0-.6.1c-1.5.6-3,1.1-4.6,1.6a1.6,1.6,0,0,0-.9.7,1.45,1.45,0,0,0-.1,1.1,1.54,1.54,0,0,0,1.9,1c1.6-.5,3.3-1.1,4.8-1.7a1.46,1.46,0,0,0,0-2.7A.75.75,0,0,0,407.8,356.39Zm10.6.3a4.42,4.42,0,0,1-3.7-1.9,4.61,4.61,0,0,1,1.1-6.3,34.4,34.4,0,0,0,3.6-2.8,4.53,4.53,0,0,1,6.3.4,4.43,4.43,0,0,1,1.1,3.3,4.59,4.59,0,0,1-1.5,3.1c-1.4,1.2-2.8,2.3-4.3,3.4A5,5,0,0,1,418.4,356.69Zm3.9-9a1.43,1.43,0,0,0-1,.4c-1.2,1-2.5,2-3.8,3a1.51,1.51,0,0,0,1.7,2.5c1.4-1,2.8-2.1,4.1-3.2a1.39,1.39,0,0,0,.5-1,1.5,1.5,0,0,0-.4-1.1A1.16,1.16,0,0,0,422.3,347.69Zm7.8-3.1a4,4,0,0,1-2.4-.7,4.51,4.51,0,0,1-1.4-6.2,36.07,36.07,0,0,0,2.2-3.9,4.25,4.25,0,0,1,2.6-2.3,4.44,4.44,0,0,1,3.4.2,4.52,4.52,0,0,1,2.1,6,37.17,37.17,0,0,1-2.7,4.8A4.2,4.2,0,0,1,430.1,344.59Zm2.5-10.3a.9.9,0,0,0-.5.1,1.42,1.42,0,0,0-.9.8,41.61,41.61,0,0,1-2.3,4.2,1.53,1.53,0,0,0,2.6,1.6,39.58,39.58,0,0,0,2.5-4.5,1.53,1.53,0,0,0-.7-2A1.08,1.08,0,0,0,432.6,334.29Zm3.6-5.4a2.2,2.2,0,0,1-.8-.1,4.42,4.42,0,0,1-2.9-1.9,4.53,4.53,0,0,1-.7-3.4,34.69,34.69,0,0,0,.6-4.5,4.7,4.7,0,0,1,1.6-3.1,4.36,4.36,0,0,1,3.3-1,4.7,4.7,0,0,1,3.1,1.6,4.43,4.43,0,0,1,1.1,3.3,49.87,49.87,0,0,1-.7,5.4A4.9,4.9,0,0,1,436.2,328.89Zm.6-11a1.69,1.69,0,0,0-1,.3,1.39,1.39,0,0,0-.5,1,37,37,0,0,1-.6,4.8,1.39,1.39,0,0,0,.2,1.1,1.7,1.7,0,0,0,1,.6,1.37,1.37,0,0,0,1.7-1.2c.3-1.6.5-3.4.7-5.1a1.47,1.47,0,0,0-1.4-1.6A.1.1,0,0,1,436.8,317.89Zm-.2-5.9a4.53,4.53,0,0,1-4.5-3.9c-.2-1.5-.5-3-.8-4.5a4.09,4.09,0,0,1,.6-3.4,4.75,4.75,0,0,1,2.8-2,4.54,4.54,0,0,1,5.4,3.4,43.43,43.43,0,0,1,.9,5.4,4.43,4.43,0,0,1-3.9,5Zm-.9-10.9h-.3a1.27,1.27,0,0,0-.9.7,1.39,1.39,0,0,0-.2,1.1,34.32,34.32,0,0,1,.8,4.8,1.5,1.5,0,0,0,1.7,1.3,1.55,1.55,0,0,0,1.3-1.7,45.43,45.43,0,0,0-.9-5.1A1.5,1.5,0,0,0,435.7,301.09Zm-4.2-5.2a4.54,4.54,0,0,1-3.9-2.3,29.22,29.22,0,0,0-2.4-3.7,4.51,4.51,0,1,1,7.3-5.3,46.64,46.64,0,0,1,3,4.7,4.52,4.52,0,0,1-1.7,6.1A6.82,6.82,0,0,1,431.5,295.89Zm-2.7-10.2a1.61,1.61,0,0,0-.9.3,1.46,1.46,0,0,0-.3,2.1c.9,1.3,1.8,2.6,2.6,4a1.48,1.48,0,0,0,2.6-1.4,40.81,40.81,0,0,0-2.8-4.4A1.56,1.56,0,0,0,428.8,285.69Zm-8.4-2.5a4.39,4.39,0,0,1-2.7-.9c-1.2-.9-2.4-1.8-3.7-2.6a4.54,4.54,0,0,1-1.5-6.2,4.6,4.6,0,0,1,6.2-1.5,50.86,50.86,0,0,1,4.5,3.1,4,4,0,0,1,1.7,3,4.29,4.29,0,0,1-.9,3.3A4.7,4.7,0,0,1,420.4,283.19Zm-4.1-8.9h-.4a1.27,1.27,0,0,0-.9.7,1.6,1.6,0,0,0,.5,2.1c1.4.9,2.7,1.8,4,2.7a1.47,1.47,0,0,0,2.1-.3,2,2,0,0,0,.3-1.1,1.33,1.33,0,0,0-.6-1c-1.3-1-2.8-2-4.2-2.9A3.09,3.09,0,0,0,416.3,274.29Zm-10.9.9a4,4,0,0,1-1.5-.3c-1.4-.5-2.9-1-4.4-1.4a4.41,4.41,0,0,1-2.7-2.1,4.08,4.08,0,0,1-.4-3.4,4.51,4.51,0,0,1,5.5-3.2c1.7.5,3.5,1,5.1,1.6a4.41,4.41,0,0,1,2.7,5.7A4.6,4.6,0,0,1,405.4,275.19Zm-4.7-7.5a1.32,1.32,0,0,0-1.4,1.1,1.38,1.38,0,0,0,.1,1.1,1.6,1.6,0,0,0,.9.7,36.76,36.76,0,0,1,4.7,1.5,1.53,1.53,0,0,0,1.9-.9,1.45,1.45,0,0,0-.9-1.9,39.74,39.74,0,0,0-4.9-1.5A.76.76,0,0,0,400.7,267.69Zm-181.8,4.1h-.3c-1.8-.1-3.6-.4-5.4-.6a4.54,4.54,0,0,1-3.7-5.2,4.29,4.29,0,0,1,1.8-2.9,4.44,4.44,0,0,1,3.3-.8c1.5.2,3,.4,4.6.5a4.47,4.47,0,0,1,4.1,4.8A4.4,4.4,0,0,1,218.9,271.79Zm-5-6.6a1.61,1.61,0,0,0-.9.3,1.7,1.7,0,0,0-.6,1,1.48,1.48,0,0,0,1.2,1.7,44.29,44.29,0,0,0,5.1.6h.1a1.52,1.52,0,0,0,1.5-1.4,1.5,1.5,0,0,0-.4-1.1,1.39,1.39,0,0,0-1-.5,37,37,0,0,1-4.8-.6Zm174.9,6.4h-.4c-1.6-.1-3.2-.2-4.6-.2a4.55,4.55,0,0,1-4.5-4.5,4.48,4.48,0,0,1,4.5-4.5h0a51.69,51.69,0,0,1,5.4.3,4.27,4.27,0,0,1,3,1.6,4.81,4.81,0,0,1,1,3.3A4.31,4.31,0,0,1,388.8,271.59Zm-4.9-6.3a1.5,1.5,0,0,0,0,3,41.54,41.54,0,0,1,4.9.3,1.37,1.37,0,0,0,1.6-1.4,2,2,0,0,0-.3-1.1,1.39,1.39,0,0,0-1-.5c-1.9-.2-3.6-.2-5.2-.3Zm-12.1,6.1h-5a4.5,4.5,0,0,1,0-9h5a4.5,4.5,0,1,1,0,9Zm-5-6a1.5,1.5,0,0,0,0,3h5a1.5,1.5,0,1,0,0-3Zm-12,6h-5a4.5,4.5,0,0,1,0-9h5a4.5,4.5,0,1,1,0,9Zm-5-6a1.5,1.5,0,0,0,0,3h5a1.5,1.5,0,1,0,0-3Zm-12,6h-5a4.5,4.5,0,0,1,0-9h5a4.5,4.5,0,1,1,0,9Zm-5-6a1.5,1.5,0,0,0,0,3h5a1.5,1.5,0,1,0,0-3Zm-12,6h-5a4.5,4.5,0,0,1,0-9h5a4.5,4.5,0,1,1,0,9Zm-5-6a1.5,1.5,0,0,0,0,3h5a1.5,1.5,0,1,0,0-3Zm-12,6h-5a4.5,4.5,0,0,1,0-9h5a4.5,4.5,0,1,1,0,9Zm-5-6a1.5,1.5,0,0,0,0,3h5a1.5,1.5,0,1,0,0-3Zm-12,6h-5a4.5,4.5,0,0,1,0-9h5a4.5,4.5,0,1,1,0,9Zm-5-6a1.5,1.5,0,0,0,0,3h5a1.5,1.5,0,1,0,0-3Zm-12,6h-5a4.5,4.5,0,0,1,0-9h5a4.5,4.5,0,1,1,0,9Zm-5-6a1.5,1.5,0,0,0,0,3h5a1.5,1.5,0,1,0,0-3Zm-12,6h-5a4.5,4.5,0,0,1,0-9h5a4.5,4.5,0,1,1,0,9Zm-5-6a1.5,1.5,0,0,0,0,3h5a1.5,1.5,0,1,0,0-3Zm-12,6h-5a4.5,4.5,0,0,1,0-9h5a4.5,4.5,0,0,1,0,9Zm-5-6a1.5,1.5,0,0,0,0,3h5a1.5,1.5,0,0,0,0-3Zm-28.4,2.4a4.06,4.06,0,0,1-1.9-.4,27.23,27.23,0,0,1-5-2.9,4.58,4.58,0,0,1-1.1-6.3,4.29,4.29,0,0,1,2.9-1.8,5,5,0,0,1,3.4.7,18.78,18.78,0,0,0,3.7,2.1,4.25,4.25,0,0,1,2.3,2.6,4.55,4.55,0,0,1-4.3,6Zm-4.3-8.5h-.3a2.07,2.07,0,0,0-1,.6,1.48,1.48,0,0,0,.4,2.1,33,33,0,0,0,4.5,2.6,1.59,1.59,0,0,0,2-.7,1.45,1.45,0,0,0,.1-1.1,1.71,1.71,0,0,0-.8-.9,23.26,23.26,0,0,1-4.1-2.4A1.88,1.88,0,0,0,198.1,259.29Zm-7.5-3.1a4.5,4.5,0,0,1-4.1-2.7,27.75,27.75,0,0,1-1.7-5.8,4.51,4.51,0,0,1,3.7-5.2,4.58,4.58,0,0,1,3.4.8,4.29,4.29,0,0,1,1.8,2.9,16.57,16.57,0,0,0,1.1,3.8,4.48,4.48,0,0,1-2.4,5.9A5.66,5.66,0,0,1,190.6,256.19Zm-1.4-10.8h-.3a1.41,1.41,0,0,0-1.2,1.7,21.48,21.48,0,0,0,1.5,5.1,1.6,1.6,0,0,0,2,.8,1.51,1.51,0,0,0,.8-2,22.26,22.26,0,0,1-1.3-4.4,2.07,2.07,0,0,0-.6-1A2.92,2.92,0,0,0,189.2,245.39Zm.8-5.8a6.75,6.75,0,0,1-1.4-.2,4.48,4.48,0,0,1-2.9-5.7,30.08,30.08,0,0,1,2.5-5.5,4.54,4.54,0,0,1,6.2-1.5,4.14,4.14,0,0,1,2,2.8,4.45,4.45,0,0,1-.5,3.4,14.62,14.62,0,0,0-1.6,3.6A4.54,4.54,0,0,1,190,239.59Zm2.1-10.6a1.71,1.71,0,0,0-1.3.7,20.88,20.88,0,0,0-2.2,4.8,1.52,1.52,0,0,0,2.9.9,20,20,0,0,1,1.9-4.2,1.39,1.39,0,0,0,.2-1.1,1.27,1.27,0,0,0-.7-.9A3.09,3.09,0,0,0,192.1,229Zm8.4-2.3a4.53,4.53,0,0,1-3.8-2.1,4.45,4.45,0,0,1,1.4-6.2,38.45,38.45,0,0,1,4.9-2.7,4.47,4.47,0,0,1,3.4-.2,4.35,4.35,0,0,1,2.5,2.3,4.57,4.57,0,0,1-2.2,6,35.78,35.78,0,0,0-3.9,2.1A3.57,3.57,0,0,1,200.5,226.69Zm4.4-8.4a1.27,1.27,0,0,0-.6.1,49.85,49.85,0,0,0-4.6,2.5,1.53,1.53,0,1,0,1.6,2.6,41.61,41.61,0,0,1,4.2-2.3,1.47,1.47,0,0,0,.7-2,2,2,0,0,0-.8-.8A.9.9,0,0,0,204.9,218.29Zm11.4,2.3a4.49,4.49,0,0,1-4.4-3.6,5,5,0,0,1,.6-3.4,4.23,4.23,0,0,1,2.8-1.9,45.07,45.07,0,0,1,5.3-.9,4.29,4.29,0,0,1,3.3.9,4,4,0,0,1,1.7,3,4.43,4.43,0,0,1-3.9,5,36.91,36.91,0,0,0-4.6.8C216.9,220.49,216.6,220.59,216.3,220.59Zm4.9-6.9H221c-1.7.2-3.4.5-5.1.8a1.53,1.53,0,1,0,.6,3c1.6-.3,3.2-.6,4.8-.8a1.55,1.55,0,0,0,1.3-1.7,1.33,1.33,0,0,0-.6-1A1.21,1.21,0,0,0,221.2,213.69Zm82.2,5.7h-2.2a4.5,4.5,0,1,1,0-9h2.1a21.75,21.75,0,0,0,2.6-.1,4.46,4.46,0,1,1,.5,8.9A28.32,28.32,0,0,1,303.4,219.39Zm-2.2-6a1.5,1.5,0,1,0,0,3h2.2a27.15,27.15,0,0,0,2.9-.1,1.23,1.23,0,0,0,1-.5,1.5,1.5,0,0,0,.4-1.1,1.48,1.48,0,0,0-1.6-1.4c-.9,0-1.8.1-2.7.1Zm-12,6h-5a4.5,4.5,0,0,1,0-9h5a4.5,4.5,0,0,1,0,9Zm-5-6a1.5,1.5,0,0,0,0,3h5a1.5,1.5,0,0,0,0-3Zm-12,6h-5a4.5,4.5,0,0,1,0-9h5a4.5,4.5,0,0,1,0,9Zm-5-6a1.5,1.5,0,0,0,0,3h5a1.5,1.5,0,0,0,0-3Zm-12,6h-5a4.5,4.5,0,0,1,0-9h5a4.5,4.5,0,0,1,0,9Zm-5-6a1.5,1.5,0,0,0,0,3h5a1.5,1.5,0,0,0,0-3Zm-12,6h-5a4.5,4.5,0,0,1,0-9h5a4.5,4.5,0,0,1,0,9Zm-5-6a1.5,1.5,0,0,0,0,3h5a1.5,1.5,0,0,0,0-3Zm84.7,3.4a4.47,4.47,0,0,1-1.7-8.6,13.3,13.3,0,0,0,3.5-2,4.13,4.13,0,0,1,3.4-.7,4.42,4.42,0,0,1,2.9,1.9,4.13,4.13,0,0,1,.7,3.4,4.42,4.42,0,0,1-1.9,2.9,29,29,0,0,1-5.2,2.9A8.81,8.81,0,0,1,317.9,216.79Zm4.3-8.4a1.61,1.61,0,0,0-.9.3,23,23,0,0,1-4.1,2.3,1.51,1.51,0,0,0-.8,2,1.6,1.6,0,0,0,2,.8,22.84,22.84,0,0,0,4.6-2.6,1.7,1.7,0,0,0,.6-1,1.39,1.39,0,0,0-.2-1.1,1.7,1.7,0,0,0-1-.6C322.4,208.39,322.3,208.39,322.2,208.39Zm7.6-3.1a4.6,4.6,0,0,1-4.1-6.5,37,37,0,0,0,1.6-4,4.37,4.37,0,0,1,2.2-2.6,4.08,4.08,0,0,1,3.4-.3,4.51,4.51,0,0,1,3,5.6,36.57,36.57,0,0,1-2.1,5.3A4.34,4.34,0,0,1,329.8,205.29Zm1.9-10.6a1.85,1.85,0,0,0-.7.2,1.27,1.27,0,0,0-.7.9,36.81,36.81,0,0,1-1.7,4.4,1.44,1.44,0,0,0,.7,2,1.5,1.5,0,0,0,2-.7,31.24,31.24,0,0,0,1.9-4.9,1.58,1.58,0,0,0-1-1.9Zm2-5.8h-.3a4.59,4.59,0,0,1-3.1-1.5,4.43,4.43,0,0,1-1.1-3.3c.1-1.5.2-3,.2-4.8a4.44,4.44,0,0,1,4.6-4.4,4.48,4.48,0,0,1,4.4,4.6c0,1.9-.1,3.6-.2,5.2A4.49,4.49,0,0,1,333.7,188.89Zm.2-11a1.28,1.28,0,0,0-1,.4,1.61,1.61,0,0,0-.5,1.1c0,1.8-.1,3.4-.2,4.9a1.5,1.5,0,0,0,.4,1.1,1.39,1.39,0,0,0,1,.5h.1a1.52,1.52,0,0,0,1.5-1.4c.1-1.6.2-3.3.2-5.1a1.42,1.42,0,0,0-1.5-1.5Zm-.1-6a4.46,4.46,0,0,1-4.5-4.4c0-1.7-.1-3.4-.1-5.1a4.5,4.5,0,0,1,9,0c0,1.6,0,3.3.1,4.9a4.42,4.42,0,0,1-4.4,4.6Zm-.1-11a1.54,1.54,0,0,0-1.5,1.5c0,1.6,0,3.4.1,5a1.54,1.54,0,0,0,1.5,1.5v0a1.54,1.54,0,0,0,1.5-1.5c0-1.6-.1-3.3-.1-5A1.47,1.47,0,0,0,333.7,160.89Z" fill="#fff"/><path d="M105.5,411.59a3,3,0,1,1,0-6,6.92,6.92,0,0,0,3.4-.9,3,3,0,0,1,2.9,5.3,13.4,13.4,0,0,1-6.3,1.6Zm11.1-10.9a1.27,1.27,0,0,1-.6-.1,3,3,0,0,1-2.4-3.5,47,47,0,0,1,1.2-5.1,3,3,0,0,1,5.8,1.6c-.4,1.5-.8,3.1-1.1,4.7A2.91,2.91,0,0,1,116.6,400.69Zm5.4-16a3.53,3.53,0,0,1-1.4-.3,2.93,2.93,0,0,1-1.3-4,34.69,34.69,0,0,1,2.7-4.6,3,3,0,1,1,5,3.4c-.8,1.3-1.6,2.6-2.4,4A3,3,0,0,1,122,384.69Zm10.7-13a3,3,0,0,1-2.4-1.2,3,3,0,0,1,.6-4.2,37,37,0,0,1,4.7-2.9,3,3,0,0,1,2.7,5.3,30.3,30.3,0,0,0-3.8,2.4A3.23,3.23,0,0,1,132.7,371.69Zm15.7-6a3,3,0,0,1-.4-5.9,45.78,45.78,0,0,1,5.3-.3h0a3,3,0,0,1,0,6,33.33,33.33,0,0,0-4.6.3A.37.37,0,0,0,148.4,365.69Zm238-.2a3.06,3.06,0,0,1-3-2.9,2.89,2.89,0,0,1,2.9-3.1c1.5-.1,3.1-.2,4.7-.4a3,3,0,1,1,.7,5.9,47.31,47.31,0,0,1-5.2.4Zm-12-.1h-5a3,3,0,0,1,0-6h5a3,3,0,0,1,3,3A3,3,0,0,1,374.4,365.39Zm-17,0h-5a3,3,0,0,1,0-6h5a3,3,0,0,1,3,3A3,3,0,0,1,357.4,365.39Zm-17,0h-5a3,3,0,0,1,0-6h5a3,3,0,0,1,3,3A3,3,0,0,1,340.4,365.39Zm-17,0h-5a3,3,0,0,1,0-6h5a3,3,0,0,1,3,3A3,3,0,0,1,323.4,365.39Zm-17,0h-5a3,3,0,0,1,0-6h5a3,3,0,0,1,3,3A3,3,0,0,1,306.4,365.39Zm-17,0h-5a3,3,0,0,1,0-6h5a3,3,0,0,1,3,3A3,3,0,0,1,289.4,365.39Zm-17,0h-5a3,3,0,0,1,0-6h5a3,3,0,0,1,3,3A3,3,0,0,1,272.4,365.39Zm-17,0h-5a3,3,0,1,1,0-6h5a3,3,0,0,1,3,3A3,3,0,0,1,255.4,365.39Zm-17,0h-5a3,3,0,1,1,0-6h5a3,3,0,0,1,3,3A3,3,0,0,1,238.4,365.39Zm-17,0h-5a3,3,0,1,1,0-6h5a3,3,0,0,1,3,3A3,3,0,0,1,221.4,365.39Zm-17,0h-5a3,3,0,1,1,0-6h5a3,3,0,0,1,3,3A3,3,0,0,1,204.4,365.39Zm-17,0h-5a3,3,0,1,1,0-6h5a3,3,0,0,1,3,3A3,3,0,0,1,187.4,365.39Zm-17,0h-5a3,3,0,1,1,0-6h5a3,3,0,0,1,3,3A3,3,0,0,1,170.4,365.39Zm232.7-2.8a3,3,0,0,1-2.9-2.1,3,3,0,0,1,2-3.8c1.5-.5,3-1,4.5-1.6a3,3,0,0,1,3.9,1.7,3,3,0,0,1-1.7,3.9c-1.6.6-3.3,1.2-4.9,1.8C403.7,362.49,403.4,362.59,403.1,362.59Zm15.3-7.4a3.13,3.13,0,0,1-2.5-1.3,3,3,0,0,1,.8-4.2c1.3-.9,2.5-1.9,3.7-2.9a3,3,0,0,1,3.9,4.5q-1.95,1.65-4.2,3.3A2.53,2.53,0,0,1,418.4,355.19Zm11.7-12.1a3,3,0,0,1-1.6-.5,2.94,2.94,0,0,1-.9-4.1,31.13,31.13,0,0,0,2.2-4,3,3,0,0,1,5.4,2.6,43.09,43.09,0,0,1-2.6,4.7A3,3,0,0,1,430.1,343.09Zm6.1-15.7h-.5a3,3,0,0,1-2.4-3.5,35.49,35.49,0,0,0,.6-4.7,3,3,0,0,1,5.9.5,43.41,43.41,0,0,1-.7,5.2A2.91,2.91,0,0,1,436.2,327.39Zm.4-16.9a3,3,0,0,1-3-2.6c-.2-1.6-.5-3.1-.8-4.6a3,3,0,0,1,5.8-1.4,43.39,43.39,0,0,1,.9,5.2,3.17,3.17,0,0,1-2.6,3.4Zm-5.1-16.1a3,3,0,0,1-2.6-1.5,32.21,32.21,0,0,0-2.5-3.9,3,3,0,1,1,4.8-3.6,43,43,0,0,1,2.9,4.5,3,3,0,0,1-1.2,4.1A2.73,2.73,0,0,1,431.5,294.39Zm-11.1-12.7a3,3,0,0,1-1.8-.6q-1.8-1.35-3.9-2.7a3.05,3.05,0,0,1-1-4.1,2.94,2.94,0,0,1,4.1-1c1.5.9,3,2,4.4,3a2.92,2.92,0,0,1,.5,4.2A2.68,2.68,0,0,1,420.4,281.69Zm-15-8a3.55,3.55,0,0,1-1-.2c-1.5-.5-3-1-4.6-1.4a3,3,0,0,1,1.6-5.8c1.7.5,3.4,1,5,1.6a2.93,2.93,0,0,1,1.8,3.8A2.79,2.79,0,0,1,405.4,273.69Zm-186.5-3.4h-.2a43.5,43.5,0,0,1-5.2-.6,3.09,3.09,0,0,1-2.5-3.4,3,3,0,0,1,3.4-2.5c1.5.3,3.1.4,4.7.6a3,3,0,0,1-.2,5.9Zm169.9-.2h-.3c-1.6-.2-3.2-.2-4.8-.3a3,3,0,0,1,0-6,46.66,46.66,0,0,1,5.2.3,3,3,0,0,1,2.7,3.3A2.65,2.65,0,0,1,388.8,270.09Zm-17-.2h-5a3,3,0,0,1,0-6h5a3,3,0,1,1,0,6Zm-17,0h-5a3,3,0,0,1,0-6h5a3,3,0,1,1,0,6Zm-17,0h-5a3,3,0,0,1,0-6h5a3,3,0,1,1,0,6Zm-17,0h-5a3,3,0,0,1,0-6h5a3,3,0,1,1,0,6Zm-17,0h-5a3,3,0,0,1,0-6h5a3,3,0,1,1,0,6Zm-17,0h-5a3,3,0,0,1,0-6h5a3,3,0,1,1,0,6Zm-17,0h-5a3,3,0,0,1,0-6h5a3,3,0,1,1,0,6Zm-17,0h-5a3,3,0,0,1,0-6h5a3,3,0,1,1,0,6Zm-17,0h-5a3,3,0,0,1,0-6h5a3,3,0,0,1,0,6Zm-33.4-3.6a3.08,3.08,0,0,1-1.3-.3,37.17,37.17,0,0,1-4.8-2.7,3,3,0,1,1,3.5-4.9,24.58,24.58,0,0,0,3.9,2.2,3,3,0,0,1-1.3,5.7Zm-11.8-11.6a3.08,3.08,0,0,1-2.8-1.8,23.45,23.45,0,0,1-1.6-5.5,3,3,0,0,1,6-1,14.84,14.84,0,0,0,1.2,4.1,3,3,0,0,1-1.6,3.9A2.66,2.66,0,0,1,190.6,254.69Zm-.6-16.6a2.77,2.77,0,0,1-.9-.1,3,3,0,0,1-1.9-3.8,23.77,23.77,0,0,1,2.4-5.1,3,3,0,0,1,5.1,3.1,23.22,23.22,0,0,0-1.8,3.9A3.14,3.14,0,0,1,190,238.09Zm10.5-12.9a2.85,2.85,0,0,1-2.5-1.4,2.92,2.92,0,0,1,.9-4.1c1.5-.9,3.1-1.8,4.7-2.6a3,3,0,0,1,2.6,5.4,37.77,37.77,0,0,0-4,2.2A3.69,3.69,0,0,1,200.5,225.19Zm15.8-6.1a3,3,0,0,1-.6-5.9c1.7-.4,3.4-.6,5.2-.9a3,3,0,0,1,.8,6c-1.6.2-3.2.5-4.7.8A1.63,1.63,0,0,0,216.3,219.09Zm87.1-1.2h-2.2a3,3,0,1,1,0-6h2.1a24.37,24.37,0,0,0,2.7-.1,3.08,3.08,0,0,1,3.2,2.8,3,3,0,0,1-2.8,3.2C305.4,217.79,304.4,217.89,303.4,217.89Zm-14.2,0h-5a3,3,0,0,1,0-6h5a3,3,0,0,1,0,6Zm-17,0h-5a3,3,0,0,1,0-6h5a3,3,0,0,1,0,6Zm-17,0h-5a3,3,0,0,1,0-6h5a3,3,0,0,1,0,6Zm-17,0h-5a3,3,0,0,1,0-6h5a3,3,0,0,1,0,6Zm79.7-2.6a3.08,3.08,0,0,1-2.8-1.8,3,3,0,0,1,1.6-3.9,19.67,19.67,0,0,0,3.8-2.1,3,3,0,1,1,3.5,4.9,25.67,25.67,0,0,1-4.9,2.7A5,5,0,0,1,317.9,215.29Zm11.9-11.5a3.08,3.08,0,0,1-1.3-.3,3,3,0,0,1-1.4-4,40.81,40.81,0,0,0,1.7-4.2,3,3,0,1,1,5.8,1.8,38.63,38.63,0,0,1-2,5.1A3.19,3.19,0,0,1,329.8,203.79Zm3.9-16.4h-.2a3,3,0,0,1-2.8-3.2c.1-1.5.2-3.1.2-4.8a3,3,0,1,1,6,.2c0,1.8-.1,3.5-.2,5.2A3,3,0,0,1,333.7,187.39Zm.1-17a3,3,0,0,1-3-2.9c0-1.7-.1-3.4-.1-5.1a3,3,0,0,1,6,0c0,1.6,0,3.3.1,4.9a3.16,3.16,0,0,1-3,3.1Z" fill="#304d5f"/><path d="M333,162.39s41.1-58,41.1-80.7a41.15,41.15,0,1,0-82.3,0C291.9,104.29,333,162.39,333,162.39Zm0-56.5a26.5,26.5,0,1,0-26.5-26.5A26.48,26.48,0,0,0,333,105.89Z" fill="#e06f5d" fill-rule="evenodd"/><path d="M94.9,406.09s63.5-89.5,63.5-124.6a63.5,63.5,0,0,0-127,0C31.4,316.59,94.9,406.09,94.9,406.09Zm0-87.1A40.9,40.9,0,1,0,54,278.09,40.89,40.89,0,0,0,94.9,319Z" fill="#e06f5d" fill-rule="evenodd"/><path d="M333,167.39l-2.4-3.3c-1-1.3-1.6-2.2-2-2.8-9.3-13.6-39.8-59.3-39.8-79.7a44.1,44.1,0,0,1,88.2,0c0,19.7-27.5,61.9-39.5,79.3-.4.7-1.1,1.7-2.2,3.2Zm0-123.9a38.15,38.15,0,0,0-38.1,38.1c0,14.7,19.6,48.4,38.1,75.5,18.5-27,38.1-60.8,38.1-75.5A38.15,38.15,0,0,0,333,43.49Zm0,65.4a29.5,29.5,0,1,1,29.5-29.5A29.49,29.49,0,0,1,333,108.89Zm0-53.1a23.5,23.5,0,1,0,23.5,23.5A23.54,23.54,0,0,0,333,55.79Z" fill="#fff"/><path d="M94.9,411.49,92.4,408s-.7-1.1-1.3-1.9c-10.5-15-62.7-91.7-62.7-124.4a66.5,66.5,0,0,1,133,0c0,32.8-52.2,109.4-62.7,124.4h0Zm0-190.2a60.58,60.58,0,0,0-60.5,60.5c0,30.2,50.4,104.7,60.5,119.3,10.1-14.6,60.5-89.1,60.5-119.3A60.58,60.58,0,0,0,94.9,221.29Zm0,100.9a43.9,43.9,0,1,1,43.9-43.9A44,44,0,0,1,94.9,322.19Zm0-81.8a37.9,37.9,0,1,0,37.9,37.9A37.94,37.94,0,0,0,94.9,240.39Z" fill="#fff"/></g></g></g></svg>