<svg xmlns="http://www.w3.org/2000/svg" viewBox="0 0 437.73 448.98"><title>Suitcases</title><g id="Layer_2" data-name="Layer 2"><g id="Слой_1" data-name="Слой 1"><g id="Suitcases"><path d="M277,58.6c65.2-22.7,147.2,54.2,154.4,93.3s24.1,178.7-61.8,254.2c-86.5,76.1-283.3,44.8-339.4-45.8s-33.5-229,62.6-280.9S195.53,87,277,58.6Z" fill="#ffe3e3"/><path d="M27.63,268.7h194.9a6,6,0,0,1,6,6V402.4a6,6,0,0,1-6,6H27.63a6,6,0,0,1-6-6V274.7A6,6,0,0,1,27.63,268.7Z" fill="#acd8cf"/><path d="M87.93,268.7a28.55,28.55,0,0,1,28.5-28.5h17.3a28.55,28.55,0,0,1,28.5,28.5h-8a20.53,20.53,0,0,0-20.5-20.5h-17.3a20.53,20.53,0,0,0-20.5,20.5Z" fill="#304d5f" fill-rule="evenodd"/><rect x="57.33" y="268.7" width="18.7" height="139.7" fill="#9cccc2"/><rect x="174.03" y="268.7" width="18.7" height="139.7" fill="#9cccc2"/><path d="M207.53,388.2h20.9v10.5a10.5,10.5,0,0,1-21,0V388.2Z" fill="#304d5f"/><path d="M364,388.2h21v10.5a10.5,10.5,0,1,1-21,0Z" fill="#304d5f"/><path d="M208.33,111.4h174.5a21.94,21.94,0,0,1,22,22V366.5a21.94,21.94,0,0,1-22,22H208.33a21.94,21.94,0,0,1-22-22V133.4A21.94,21.94,0,0,1,208.33,111.4Z" fill="#f3ab5e"/><path d="M364.23,111.4h-16V41.7a22.06,22.06,0,0,0-22-22h-61.3a22.06,22.06,0,0,0-22,22v69.7h-16V41.7a38,38,0,0,1,38-38h61.3a38,38,0,0,1,38,38Z" fill="#304d5f"/><path d="M186.33,340.1h218.5v26.3a21.94,21.94,0,0,1-22,22H208.33a22,22,0,0,1-22-22Z" fill="#a7a769"/><rect x="313.84" y="143.91" width="55.8" height="75.3" transform="translate(25.12 404.04) rotate(-63.08)" fill="#6c98b4"/><path d="M358.43,215.6l-54-27.4,20.7-40.7,54,27.4Zm-50-28.8,48.7,24.7,18-35.4-48.7-24.7Z" fill="#9cccc2"/><path d="M275.33,259c4.5,16-3.9,21-14.8,24.5s-19.5,7.7-24.9-10,3.5-19.2,14.3-22.7S270.83,243,275.33,259Z" fill="#6c98b4"/><path d="M269.63,261.3c3.1,7.2-3.3,14.6-10.7,17s-13.8,7.2-17.1-6.8,2.4-13.2,9.8-15.6S266.73,254.6,269.63,261.3Z" fill="#6c90a8"/><path d="M249.43,282.6a6.45,6.45,0,0,1-3.3-.8c-2.6-1.4-4.4-4.6-5.7-10-2.9-12.6,1-14.6,7.9-16.5.9-.3,1.9-.5,2.9-.8,9.2-3,16.9-.5,19.8,6.2h0a11.43,11.43,0,0,1-.2,9.4,19,19,0,0,1-11.4,9.6c-1,.3-1.9.7-2.9,1C254,281.7,251.63,282.6,249.43,282.6Zm9.2-26.4a20.63,20.63,0,0,0-6.5,1.1q-1.65.45-3,.9c-5.7,1.5-8.2,2.2-5.8,12.9,1,4.4,2.4,7.1,4.2,8,2,1.1,4.8,0,8-1.2,1-.4,2-.7,3-1.1,4.2-1.4,8-4.5,9.6-8a8.56,8.56,0,0,0,.2-7C266.43,257.8,262.63,256.2,258.63,256.2Z" fill="#9cccc2"/><path d="M344,50a8.61,8.61,0,0,0,1.9,9.5l28,27.8a10.72,10.72,0,0,0,6.1,3,10.55,10.55,0,0,0,8.8-3l15.3-15.4a10.66,10.66,0,0,0,3-8.8,11,11,0,0,0-3-6.1l-28-27.8a8.61,8.61,0,0,0-9.5-1.8l-9.4,4a17.42,17.42,0,0,0-9.1,9.2Zm13.3-9.2a2.26,2.26,0,1,0-3.2,0A2.23,2.23,0,0,0,357.33,40.8Z" fill="#d6dac0" fill-rule="evenodd"/><path d="M387,72.3a.6.6,0,0,1-.4-.1L378,63.6a.49.49,0,0,1,.7-.7l8.6,8.6a.48.48,0,0,1,0,.7A.37.37,0,0,1,387,72.3Zm3.1-3.1a.6.6,0,0,1-.4-.1l-14.9-14.9a.49.49,0,1,1,.7-.7l14.9,14.9a.48.48,0,0,1,0,.7A.37.37,0,0,1,390.13,69.2Zm3.1-3.1a.6.6,0,0,1-.4-.1l-5.5-5.5a.49.49,0,1,1,.7-.7l5.5,5.5a.48.48,0,0,1,0,.7A.37.37,0,0,1,393.23,66.1Zm3.1-3.1a.6.6,0,0,1-.4-.1l-9-9a.49.49,0,1,1,.7-.7l9,9a.48.48,0,0,1,0,.7A.37.37,0,0,1,396.33,63Zm-21-2.3a.6.6,0,0,1-.4-.1l-13.1-13.1a.49.49,0,1,1,.7-.7l13.1,13.1a.48.48,0,0,1,0,.7A1,1,0,0,1,375.33,60.7Zm9.3-3.1a.6.6,0,0,1-.4-.1L368,41.3a.49.49,0,0,1,.7-.7l16.2,16.2a.48.48,0,0,1,0,.7A1,1,0,0,1,384.63,57.6Zm-13.3-7.2a.6.6,0,0,1-.4-.1l-6-6a.49.49,0,1,1,.7-.7l6,6a.48.48,0,0,1,0,.7A.37.37,0,0,1,371.33,50.4Zm11.8-.6a.6.6,0,0,1-.4-.1l-11.6-11.6a.49.49,0,0,1,.7-.7L383.43,49a.48.48,0,0,1,0,.7A.37.37,0,0,1,383.13,49.8Z" fill="#fff"/><path d="M374.43,411.5a13.51,13.51,0,0,1-13.5-13.5v-7.2H231.43v11a9,9,0,0,1-9,9h-.3a13.4,13.4,0,0,1-8.4,0H27.53a9,9,0,0,1-9-9V274.1a9,9,0,0,1,9-9H85a31.41,31.41,0,0,1,31.3-28.5h17.3a31.41,31.41,0,0,1,31.3,28.5h18.3V132.7a25,25,0,0,1,25-25h15.6V41a41.06,41.06,0,0,1,41-41h61.3a40.71,40.71,0,0,1,37.6,24.6l1.5-.6A11.67,11.67,0,0,1,378,26.4l28,27.8a13.54,13.54,0,0,1,3.9,7.8,13.81,13.81,0,0,1-3.8,11.4l-15.2,15.3a13.5,13.5,0,0,1-19.1.1l-4.5-4.5v23.4h15.6a25,25,0,0,1,25,25V365.8a19.27,19.27,0,0,1-.1,2.4,25.09,25.09,0,0,1-19.7,22.1v7.8A13.79,13.79,0,0,1,374.43,411.5Zm-145.9-23.7H364V398a10.5,10.5,0,0,0,21,0V387.7l1.3-.2a22.08,22.08,0,0,0,18.5-19.6,14.77,14.77,0,0,0,.1-2.1V132.7a22.06,22.06,0,0,0-22-22h-18.7V77l9.6,9.6a10.53,10.53,0,0,0,14.9,0l15.2-15.3a10.76,10.76,0,0,0,3-8.9,11,11,0,0,0-3-6.1l-28-27.8a8.57,8.57,0,0,0-9.5-1.8l-4.3,1.8-.6-1.4A37.72,37.72,0,0,0,326.13,3h-61.3a38,38,0,0,0-38,38v69.7h-18.6a22.06,22.06,0,0,0-22,22V268.1h-24l-.1-1.4a28.41,28.41,0,0,0-28.5-27.1h-17.3a28.55,28.55,0,0,0-28.5,27.1l-.1,1.4H27.43a6,6,0,0,0-6,6V401.8a6,6,0,0,0,6,6h186.7l.2.1a10.22,10.22,0,0,0,6.9,0l.2-.1h.8a6,6,0,0,0,6-6v-14Zm-74.3-119.7H95.83l.1-1.6a20.56,20.56,0,0,1,20.4-18.9h17.3A20.56,20.56,0,0,1,154,266.5Zm-55.1-3h51.8a17.59,17.59,0,0,0-17.2-14.5h-17.3A17.6,17.6,0,0,0,99.13,265.1Zm249.1-154.4H242.93V41a22.06,22.06,0,0,1,22-22h61.3a22.13,22.13,0,0,1,21.9,20.1v.3l-.1.3c0,.1-.1.1-.1.2l-4,9.5a8.61,8.61,0,0,0,1.9,9.5l2.3,2.3v49.5Zm-102.3-3h99.3V62.4l-1.5-1.4a11.52,11.52,0,0,1-2.5-12.8l3.9-9.2a19.06,19.06,0,0,0-18.9-17h-61.3a19,19,0,0,0-19,19Z" fill="#fff"/></g></g></g></svg>