<svg xmlns="http://www.w3.org/2000/svg" viewBox="0 0 381.23 417.76"><title>Asset 22</title><g id="Layer_2" data-name="Layer 2"><g id="Слой_1" data-name="Слой 1"><path d="M338.9,105.76c57.2,38.7,60.7,213.1-15.9,259.3s-96.3,66.4-208.2,42.7C2.1,383.86,0,285.46,0,205.86S45.5,42.06,152.4,8,267.5,57.36,338.9,105.76Z" fill="#fdd29d"/><path d="M91.5,166.46H298.6a15,15,0,0,1,15,15V334a15,15,0,0,1-15,15H91.5a15,15,0,0,1-15-15V181.46A15,15,0,0,1,91.5,166.46Z" fill="#6a9cc5"/><path d="M164.6,290.76,94.7,169.66a8,8,0,0,1,2.9-10.9l67.7-39.1a8,8,0,0,1,10.9,2.9l69.9,121.1a8,8,0,0,1-2.9,10.9l-67.7,39.1A8,8,0,0,1,164.6,290.76Z" fill="#fff"/><path d="M87.5,157.06l-20.7-35.8a8,8,0,0,1,2.9-10.9l67.7-39.1a8,8,0,0,1,10.9,2.9L169,110a8,8,0,0,1-2.9,10.9L98.4,160A8,8,0,0,1,87.5,157.06Z" fill="#edb71b"/><path d="M149,109.46c-.1-2.2-1.6-6.1-3.5-9.9l9.1-1.8-2.2-1.9-10-1.8c-2.8-4.2-5-5.7-6.5-4.8s-1.3,3.4.9,7.9l-3.5,9.8.6,2.9,6.1-7.1c2.4,3.6,5,6.8,6.8,8l-1.4,2.4.6,2.3,2.7-4,4.8-.4-1.7-1.7Z" fill="#fff"/><path d="M176.5,276.06a1.56,1.56,0,0,1-1.3-.8l-38.7-67.1a1.46,1.46,0,0,1,2.5-1.5l38.7,67.1a1.46,1.46,0,0,1-.5,2A.74.74,0,0,1,176.5,276.06Zm8.2-4.7a1.56,1.56,0,0,1-1.3-.8l-47-81.3a1.46,1.46,0,0,1,2.5-1.5l47,81.3a1.46,1.46,0,0,1-.5,2A.74.74,0,0,1,184.7,271.36Zm8.1-4.7a1.56,1.56,0,0,1-1.3-.8l-27.1-46.8a1.46,1.46,0,0,1,2.5-1.5l27.1,46.8a1.46,1.46,0,0,1-.5,2C193.3,266.66,193.1,266.66,192.8,266.66ZM201,262a1.56,1.56,0,0,1-1.3-.8l-9.2-16a1.46,1.46,0,0,1,2.5-1.5l9.2,16a1.46,1.46,0,0,1-.5,2A1.08,1.08,0,0,1,201,262Zm-13.7-23.7a1.56,1.56,0,0,1-1.3-.8l-47.3-81.8a1.46,1.46,0,0,1,2.5-1.5l47.3,81.9a1.45,1.45,0,0,1-1.2,2.2ZM161.8,213a1.56,1.56,0,0,1-1.3-.8l-29.9-51.8a1.46,1.46,0,1,1,2.5-1.5l29.9,51.8a1.46,1.46,0,0,1-.5,2A1.08,1.08,0,0,1,161.8,213Zm-29.5-13.4a1.56,1.56,0,0,1-1.3-.8l-16.8-29a1.46,1.46,0,1,1,2.5-1.5l16.8,29a1.46,1.46,0,0,1-.5,2A1.08,1.08,0,0,1,132.3,199.56Zm-.6-20a1.56,1.56,0,0,1-1.3-.8l-8-13.8a1.46,1.46,0,0,1,2.5-1.5l8,13.8a1.46,1.46,0,0,1-.5,2A.74.74,0,0,1,131.7,179.56Z" fill="#c9b382"/><path d="M101.7,146.66a1.56,1.56,0,0,1-1.3-.8l-11.1-19.2a1.46,1.46,0,1,1,2.5-1.5l11.1,19.2a1.46,1.46,0,0,1-.5,2A.91.91,0,0,1,101.7,146.66Zm8.2-4.8a1.56,1.56,0,0,1-1.3-.8l-13.5-23.3a1.46,1.46,0,0,1,2.5-1.5l13.5,23.3a1.46,1.46,0,0,1-.5,2C110.4,141.86,110.2,141.86,109.9,141.86Zm8.2-4.7a1.56,1.56,0,0,1-1.3-.8L109,123a1.5,1.5,0,0,1-.1-1.3,1.45,1.45,0,0,1-1-.7l-8.6-14.9a1.46,1.46,0,0,1,2.5-1.5l8.6,14.9a1.5,1.5,0,0,1,.1,1.3,1.45,1.45,0,0,1,1,.7l7.8,13.4a1.46,1.46,0,0,1-.5,2A.74.74,0,0,1,118.1,137.16Zm8.1-4.7a1.71,1.71,0,0,1-1.3-.7l-2.6-4.6a1.36,1.36,0,0,1,0-1.5,1.39,1.39,0,0,1-1.2-.7l-13.6-23.5A1.46,1.46,0,0,1,110,100l13.6,23.5a1.36,1.36,0,0,1,0,1.5,1.39,1.39,0,0,1,1.2.7l2.6,4.6a1.45,1.45,0,0,1-1.2,2.2Zm-37.1-7.8a1.71,1.71,0,0,1-1.3-.7l-4.8-8.3a1.46,1.46,0,1,1,2.5-1.5l4.8,8.3a1.46,1.46,0,0,1-.5,2A1.85,1.85,0,0,1,89.1,124.66Zm5.6-9.1a1.56,1.56,0,0,1-1.3-.8l-2.3-4a1.46,1.46,0,0,1,2.5-1.5l2.3,4a1.46,1.46,0,0,1-.5,2C95.2,115.56,95,115.56,94.7,115.56Z" fill="#fff"/><path d="M209.6,213a1.56,1.56,0,0,1-1.3-.8l-10.6-18.3a1.46,1.46,0,1,1,2.5-1.5l10.6,18.3a1.46,1.46,0,0,1-.5,2A.74.74,0,0,1,209.6,213Zm-13.4-4.2a1.56,1.56,0,0,1-1.3-.8l-36.6-63.3a1.46,1.46,0,1,1,2.5-1.5l36.6,63.3a1.46,1.46,0,0,1-.5,2A1.08,1.08,0,0,1,196.2,208.76Zm-3.8-25.6a1.56,1.56,0,0,1-1.3-.8l-24.6-42.6a1.46,1.46,0,0,1,2.5-1.5l24.6,42.6a1.46,1.46,0,0,1-.5,2A.74.74,0,0,1,192.4,183.16Z" fill="#c9b382"/><path d="M155,274.56l15.3-139a8,8,0,0,1,8.8-7.1l77.7,8.6a8,8,0,0,1,7.1,8.8l-15.3,139a8,8,0,0,1-8.8,7.1l-77.7-8.6A8.05,8.05,0,0,1,155,274.56Z" fill="#fffee1"/><path d="M240.7,292.46a2.77,2.77,0,0,1-.9-.1l-77.7-8.6a8.46,8.46,0,0,1-7.5-9.4l15.3-139a8.41,8.41,0,0,1,9.3-7.5l77.7,8.6a8.36,8.36,0,0,1,5.7,3.1,8.17,8.17,0,0,1,1.8,6.2l-15.3,139a8.36,8.36,0,0,1-3.1,5.7A7.64,7.64,0,0,1,240.7,292.46Zm-85.2-17.8a7.51,7.51,0,0,0,6.6,8.3l77.7,8.6a7.34,7.34,0,0,0,5.5-1.6,7.69,7.69,0,0,0,2.8-5l15.3-139a7.34,7.34,0,0,0-1.6-5.5,7.69,7.69,0,0,0-5-2.8l-77.7-8.6a7.34,7.34,0,0,0-5.5,1.6,7.69,7.69,0,0,0-2.8,5Z" fill="#ececec"/><path d="M172,121.16l4.5-41.1a8,8,0,0,1,8.8-7.1l77.7,8.6a8,8,0,0,1,7.1,8.8l-4.5,41.1a8,8,0,0,1-8.8,7.1L179.1,130A8,8,0,0,1,172,121.16Z" fill="#edb71b"/><path d="M249.7,119.16c1.2-1.9,2.3-5.9,3-10.1l8.4,4-.6-2.9-7-7.4c.3-5.1-.7-7.5-2.3-7.7s-3.1,2-4,6.9l-8.6,5.8-1.2,2.7,9.1-2.1c-.2,4.3,0,8.5.8,10.5l-2.6,1.1-.9,2.2,4.6-1.6,4.1,2.6-.4-2.4Z" fill="#fff"/><path d="M202.3,273.16h-.2a1.5,1.5,0,0,1-1.3-1.7l2-18.4a1.51,1.51,0,0,1,3,.4l-2,18.4A1.6,1.6,0,0,1,202.3,273.16Zm-9.4-1h-.2a1.5,1.5,0,0,1-1.3-1.7l5.9-53.8a1.51,1.51,0,0,1,3,.4l-5.9,53.8A1.6,1.6,0,0,1,192.9,272.16Zm-9.4-1.1h-.2a1.5,1.5,0,0,1-1.3-1.7l10.3-93.3a1.51,1.51,0,0,1,3,.4L185,269.76A1.43,1.43,0,0,1,183.5,271.06Zm-9.4-1h-.2a1.5,1.5,0,0,1-1.3-1.7l8.5-77a1.51,1.51,0,0,1,3,.4l-8.5,77A1.51,1.51,0,0,1,174.1,270.06ZM205.3,246h-.2a1.5,1.5,0,0,1-1.3-1.7l10.4-94a1.51,1.51,0,0,1,3,.4l-10.4,94A1.6,1.6,0,0,1,205.3,246Zm-5.6-35.5h-.2a1.5,1.5,0,0,1-1.3-1.7l6.6-59.5a1.51,1.51,0,0,1,3,.4l-6.6,59.5A1.6,1.6,0,0,1,199.7,210.46Zm-15.9-28.3h-.2a1.5,1.5,0,0,1-1.3-1.7l3.7-33.3a1.51,1.51,0,0,1,3,.4l-3.7,33.3A1.51,1.51,0,0,1,183.8,182.16Zm11.3-16.4h-.2a1.5,1.5,0,0,1-1.3-1.7l1.8-15.8a1.51,1.51,0,0,1,3,.4l-1.8,15.8A1.51,1.51,0,0,1,195.1,165.76Z" fill="#c9b382"/><path d="M218.7,124.56h-.2a1.5,1.5,0,0,1-1.3-1.7l.6-5.3a1.74,1.74,0,0,1,.8-1.2,1.61,1.61,0,0,1-.6-1.3l3-27a1.51,1.51,0,0,1,3,.4l-3,27a1.74,1.74,0,0,1-.8,1.2,1.61,1.61,0,0,1,.6,1.3l-.6,5.3A1.6,1.6,0,0,1,218.7,124.56Zm-9.4-1.1h-.2a1.5,1.5,0,0,1-1.3-1.7l1.7-15.4a1.64,1.64,0,0,1,.7-1.1,1.29,1.29,0,0,1-.4-1.2L211.7,87a1.51,1.51,0,1,1,3,.4l-1.9,17.1a1.64,1.64,0,0,1-.7,1.1,1.29,1.29,0,0,1,.4,1.2l-1.7,15.4A1.5,1.5,0,0,1,209.3,123.46Zm-9.4-1h-.2a1.5,1.5,0,0,1-1.3-1.7l3-26.8a1.51,1.51,0,1,1,3,.4l-3,26.8A1.51,1.51,0,0,1,199.9,122.46Zm-9.4-1h-.2a1.5,1.5,0,0,1-1.3-1.7l2.4-22.1a1.51,1.51,0,1,1,3,.4l-2.4,22.1A1.51,1.51,0,0,1,190.5,121.46Zm2.8-25.2h-.2a1.5,1.5,0,0,1-1.3-1.7l1-9.5a1.51,1.51,0,1,1,3,.4l-1,9.5A1.51,1.51,0,0,1,193.3,96.26Zm9.9-4H203a1.5,1.5,0,0,1-1.3-1.7l.5-4.5a1.51,1.51,0,0,1,3,.4l-.5,4.5A1.51,1.51,0,0,1,203.2,92.26Z" fill="#fff"/><path d="M238.2,238.76H238a1.5,1.5,0,0,1-1.3-1.7L239,216a1.51,1.51,0,0,1,3,.4l-2.3,21.1A1.6,1.6,0,0,1,238.2,238.76Zm-8.3-11.4h-.2a1.5,1.5,0,0,1-1.3-1.7l8-72.7a1.51,1.51,0,0,1,3,.4l-8,72.7A1.5,1.5,0,0,1,229.9,227.36Zm12.1-22.8h-.2a1.5,1.5,0,0,1-1.3-1.7l5.4-48.8a1.51,1.51,0,0,1,3,.4l-5.4,48.8A1.5,1.5,0,0,1,242,204.56Z" fill="#c9b382"/><path d="M81.5,176.46H288.6a15,15,0,0,1,15,15V344a15,15,0,0,1-15,15H81.5a15,15,0,0,1-15-15V191.46A15,15,0,0,1,81.5,176.46Z" fill="#7aabd3"/><path d="M240.3,267.76a24.11,24.11,0,0,1,24.1-24.1h45.1a4,4,0,0,1,4,4v40.2a4,4,0,0,1-4,4H264.4a24.11,24.11,0,0,1-24.1-24.1Z" fill="#8cc0c4"/><circle cx="260.6" cy="267.76" r="10.4" fill="#303333"/><path d="M288.5,362.16H81.4a18.05,18.05,0,0,1-18-18V191.66A18,18,0,0,1,74.7,175a18,18,0,0,1,16.1-11.3h0a10.77,10.77,0,0,1-6-4.9L64.1,123a10.51,10.51,0,0,1-1.1-8.3,11.44,11.44,0,0,1,5.1-6.7l67.7-39.1a10.51,10.51,0,0,1,8.3-1.1,11.44,11.44,0,0,1,6.7,5.1l19.6,34,3-26.9a11,11,0,0,1,12.1-9.7l77.7,8.6a11.39,11.39,0,0,1,7.4,4,10.28,10.28,0,0,1,2.3,8.1l-4.5,41.1a11.22,11.22,0,0,1-3.5,6.9,11,11,0,0,1,1.9,7.5l-1.9,17.3h33.5a18.05,18.05,0,0,1,18,18v152.4a18,18,0,0,1-11.3,16.7A17.71,17.71,0,0,1,288.5,362.16ZM91.4,166.66a15,15,0,0,0-14.1,10l-.2.7-.7.2a15,15,0,0,0-10,14.1v152.5a15,15,0,0,0,15,15H288.5a15,15,0,0,0,14.1-10l.2-.7.7-.2a15,15,0,0,0,10-14.1V181.66a15,15,0,0,0-15-15H261.7l2.3-20.6a7.6,7.6,0,0,0-2.2-6.4l-1.2-1.3,1.5-1a7.65,7.65,0,0,0,3.5-5.8l4.5-41.1a8.39,8.39,0,0,0-1.7-5.9,7.49,7.49,0,0,0-5.4-2.9l-77.7-8.6a8.39,8.39,0,0,0-5.9,1.7,8,8,0,0,0-3,5.4l-3.6,32.4-3,.1a10.64,10.64,0,0,0-.9-2.5l-20.7-35.8a8,8,0,0,0-4.9-3.7,7.69,7.69,0,0,0-6.1.8l-67.7,39.1a8.11,8.11,0,0,0-2.9,11l20.7,35.8a8.17,8.17,0,0,0,5.5,3.9l1.7.3-.6,1.7a7.85,7.85,0,0,0-.5,2.2l-.1,1.4H91.4Z" fill="#fff"/></g></g></svg>